<svg xmlns="http://www.w3.org/2000/svg" version="1.1" xmlns:xlink="http://www.w3.org/1999/xlink" viewBox="0 0 1422 800" style="overflow: hidden; display: block;" width="1422" height="800"><defs></defs><g id="two-0" transform="matrix(1 0 0 1 0 0)" opacity="1"></g><path d="M 917.6935513761548 206.69959790056328 Q 917.6935513761548 206.69959790056328 911.2136470244373 204.05099481674512 904.7337426727197 201.402391732927 894.2447632004282 198.79743169388877 883.7557837281366 196.19247165485055 877.543289949248 195.45334622599916 871.3307961703592 194.71422079714773 859.5437905843262 192.98873152270923 847.7567849982931 191.26324224827073 836.5651444743112 189.67868300749112 825.3735039503293 188.0941237667115 814.0051923680819 186.89795042473298 802.6368807858346 185.7017770827545 789.9450301043873 184.9768808682922 777.25317942294 184.25198465382988 761.4247564288248 183.84101856299907 745.5963334347097 183.43005247216826 726.9880322632671 183.98189405666955 708.3797310918246 184.5337356411708 688.423520987719 185.51616973870534 668.4673108836135 186.4986038362399 654.0539417446201 187.67349032586912 639.6405726056267 188.84837681549834 621.6096422472727 191.30866394057009 603.5787118889187 193.76895106564183 583.9305989156347 197.18981478076512 564.2824859423507 200.6106784958884 543.29991643978 206.01288254087524 522.3173469372091 211.41508658586204 507.8650000674681 216.07483049671032 493.4126531977271 220.73457440755863 477.0524883963773 227.8337896684927 460.6923235950276 234.93300492942677 448.87369890349885 240.36511988084402 437.0550742119701 245.7972348322613 423.9769638109719 254.31204501134846 410.89885340997364 262.8268551904356 398.0853171249315 272.0589258405925 385.27178083988946 281.2909964907494 378.2107160143133 288.0399524579892 371.1496511887371 294.78890842522895 364.1799795368911 301.75808049837786 357.21030788504515 308.7272525715268 350.02699059726115 317.9951574204125 342.8436733094772 327.26306226929825 337.09573459059743 336.0799392644987 331.34779587171766 344.89681625969916 328.1086945012222 353.0355965895046 324.8695931307268 361.1743769193101 322.33632536698053 372.0633534585105 319.8030576032342 382.95232999771093 320.5047205916801 392.9327970912286 321.206383580126 402.91326418474637 324.5389984963871 412.053101568433 327.8716134126482 421.1929389521196 334.78087536363284 428.9638624039963 341.69013731461746 436.734785855873 347.6904312493941 441.53731665377154 353.69072518417084 446.33984745167015 365.4125645463526 453.03898277371684 377.13440390853435 459.7381180957635 388.2092581561767 465.3040447196552 399.2841124038191 470.8699713435469 411.62824784124 475.25033965513853 423.9723832786609 479.6307079667302 445.08955836463355 484.78008588535795 466.2067334506062 489.9294638039857 490.2710661579359 493.78145145299345 514.3353988652656 497.6334391020012 537.3314752621219 500.12636438872244 560.3275516589782 502.61928967544367 589.9819923423315 503.7110175932263 619.6364330256848 504.8027455110089 653.1118998208221 505.2999769689445 686.5873666159595 505.79720842688016 714.3579629183954 505.22844547208643 742.1285592208313 504.6596825172927 769.0609904159708 502.83608992372297 795.9934216111103 501.0124973301533 828.0984048778306 496.26408070296804 860.2033881445509 491.51566407578287 887.3650395057648 485.5258094769496 914.5266908669788 479.5359548781163 938.8512128422651 473.0046767032379 963.1757348175515 466.47339852835955 986.1469668730488 458.1553111421464 1009.118198928546 449.8372237559333 1024.899275273126 443.50451435266496 1040.6803516177063 437.1718049493966 1053.9535087858321 430.1924289656681 1067.2266659539578 423.2130529819396 1075.6989812332974 416.70244660871606 1084.1712965126371 410.1918402354925 1089.5991117127883 405.18856878716497 1095.0269269129392 400.1852973388374 1099.0812427105352 393.84961143641044 1103.135558508131 387.51392553398347 1103.3371748009909 377.4188209867895 1103.5387910938507 367.32371643959556 1102.1983909763508 359.3994271271215 1100.8579908588508 351.4751378146474 1097.0739386536766 340.7423584146919 1093.289886448502 330.00957901473646 1089.9972523501378 323.2827419492017 1086.7046182517734 316.5559048836669 1082.9274205364825 308.7046891128825 1079.1502228211916 300.853473342098 1074.6458011445309 292.9998970089964 1070.1413794678701 285.14632067589474 1061.9642889170254 274.77982842331886 1053.787198366181 264.413336170743 1046.5808731045508 257.64481290849415 1039.374547842921 250.87628964624525 1025.9311580084443 242.82455500687 1012.4877681739675 234.77282036749477 998.7360726131279 227.87558295426658 984.9843770522883 220.9783455410384 966.5664385076467 214.00303480283554 948.1484999630051 207.0277240646327 932.2832092187657 201.5494843758163 916.4179184745265 196.0712446869999 901.4754876966945 192.13583491558867 886.5330569188625 188.20042514417744 873.1175485548663 184.0045396194982 859.7020401908702 179.80865409481893 848.5709144039351 176.961080951187 837.439788617 174.1135078075551 828.1634439922997 171.90010572718893 818.8870993675994 169.6867036468228 812.3934505175292 168.154870786244 805.8998016674591 166.62303792566522 800.9569544407102 165.8011491484359 796.0141072139613 164.9792603712066 794.7115854836715 164.4423709769514 793.4090637533816 163.90548158269615 792.3461640759714 162.98078846857547 791.2832643985612 162.05609535445478 790.5712726508336 160.84041413361237 789.8592809031061 159.62473291276996 789.5727428089959 158.24534572993667 789.2862047148858 156.86595854710342 789.455120888485 155.46728760444478 789.6240370620842 154.06861666178614 790.2307219354275 152.79710317621178 790.8374068087708 151.52558969063742 791.8183403154698 150.51436145973392 792.7992738221687 149.50313322883042 794.0517519651307 148.85806611531171 795.3042301080928 148.212999001793 796.6971180951277 148.00163170272566 798.0900060821625 147.79026440365834 799.4774681733409 148.0347271310503 800.8649302645192 148.27918985844224 802.1016988126403 148.95388730020363 803.3384673607615 149.62858474196506 804.2950523723619 150.66287589784065 805.2516373839622 151.69716705371624 805.8278841558134 152.98276136665953 806.4041309276646 154.26835567960282 806.5397062706394 155.67065108568465 806.6752816136142 157.07294649176652 806.3559907535147 158.44512229180015 806.0366998934152 159.81729809183378 805.2959726675783 161.01568711733643 804.5552454417416 162.21407614283905 803.4706361862457 163.1132067464966 802.3860269307497 164.01233735015416 801.0710945209541 164.51807032041623 799.7561621111586 165.0238032906783 798.3485803174773 165.08318825205794 796.940998523796 165.1425732134376 795.588141531593 164.74939254480225 794.2352845393901 164.3562118761669 793.0787968328686 163.55163169731227 791.9223091263472 162.74705151845765 791.083275273663 161.61531158649842 790.244241420979 160.48357165453916 789.8105084879919 159.14316543910172 789.3767755550047 157.80275922366428 789.3937554942925 156.39402760933785 789.4107354335803 154.9852959950114 789.8766504410173 153.65573355368497 790.3425654484544 152.3261711123585 791.2086340997724 151.21498338260938 792.0747027510905 150.1037956528602 793.2502474298767 149.32732428331815 794.4257921086629 148.55085291377608 795.7877329767346 148.1903946618007 797.1496738448062 147.8299364098253 798.5554153337589 147.92323134955018 799.9611568227115 148.01652628927502 799.9598846176458 148.01623026055216 799.9586124125801 148.01593423182928 805.1909430536019 149.56009334323454 810.4232736946237 151.1042524546398 816.5541278296114 153.25340909707523 822.684981964599 155.40256573951066 831.7962582479853 158.07795143163207 840.9075345313715 160.75333712375345 852.2934384086841 163.7502480340674 863.6793422859965 166.74715894438137 876.8385321956437 170.6444752507351 889.9977221052909 174.54179155708883 905.5189404421436 178.3321176254703 921.0401587789963 182.12244369385175 937.2442617179765 187.27767798239688 953.4483646569569 192.43291227094198 972.7641830209016 199.16046894931355 992.0800013848462 205.88802562768515 1006.7558747851565 212.37102984232286 1021.4317481854667 218.85403405696053 1037.1531984905064 227.1957855419181 1052.874648795546 235.53753702687567 1061.478463389993 242.82157694119343 1070.08227798444 250.10561685551122 1079.2340861643352 262.1750558607701 1088.38589434423 274.244494866029 1093.599909674192 282.65578023856233 1098.813925004154 291.0670656110957 1102.814181895439 298.85192868123556 1106.8144387867242 306.6367917513754 1110.5045233053947 314.066585721816 1114.194607824065 321.4963796922566 1118.1229133907195 334.02052341017924 1122.0512189573737 346.5446671281019 1123.1867169229017 352.86427910736677 1124.3222148884295 359.1838910866316 1123.6316338128738 368.4073109298794 1122.9410527373182 377.6307307731271 1120.5654083270524 386.8316096723412 1118.1897639167864 396.03248857155523 1111.3106712136332 403.7756466012248 1104.4315785104798 411.5188046308944 1098.2259556284953 416.1619693639525 1092.0203327465106 420.8051340970106 1082.5506386712846 427.56111462288845 1073.0809445960585 434.3170951487663 1059.227065162449 441.5776210427488 1045.3731857288396 448.8381469367313 1029.3910759402006 455.26308701422136 1013.4089661515618 461.6880270917114 989.9359783646503 470.18470577465393 966.4629905777388 478.68138445759655 941.864736688764 485.3077137443805 917.2664827997891 491.9340430311645 889.6734617747356 498.04148610464796 862.0804407496821 504.1489291781314 829.481006165902 509.00292237160875 796.881571582122 513.8569155650861 769.6496951223617 515.7654497238336 742.4178186626012 517.6739838825813 714.4178185987287 518.341967640501 686.4178185348561 519.0099513984208 652.7984581146904 518.644769833766 619.1790976945248 518.2795882691112 589.0447380999133 517.3421090749162 558.9103785053018 516.4046298807211 535.5359422421491 514.1229501980833 512.1615059789964 511.8412705154455 487.47649148653466 508.231298818466 462.7914769940729 504.62132712148644 440.8791804260095 499.7578816364125 418.9668838579461 494.89443615133854 405.51240104804873 490.8046346923867 392.0579182381514 486.7148332334348 380.1537400202517 481.78185863079483 368.24956180235205 476.8488840281549 354.19577818724736 470.1618143445296 340.14199457214266 463.4747446609043 332.648272557376 457.52828321200127 325.1545505426093 451.58182176309816 320.26622085056135 445.95816066027805 315.3778911585134 440.33449955745795 309.8575270027628 429.13780107240484 304.3371628470122 417.9411025873518 302.9298513365775 411.4760326417606 301.5225398261427 405.0109626961694 301.8526618507874 392.4951405843549 302.1827838754321 379.97931847254046 306.46869250424425 367.50934340475084 310.75460113305644 355.0393683369612 315.00286974477103 345.9517657760182 319.25113835648557 336.86416321507517 325.4620360617396 327.7825585808491 331.6729337669936 318.7009539466231 339.424781126643 308.48892708070474 347.1766284862923 298.2769002147864 354.6005187145514 291.47599154699003 362.02440894281057 284.67508287919367 369.9687698329459 277.8856688642919 377.9131307230812 271.0962548493901 390.9755684767307 261.6765700153721 404.0380062303801 252.25688518135405 417.8933059209952 243.2917598634396 431.7486056116103 234.32663454552514 443.69292984313324 228.8083602099946 455.6372540746562 223.29008587446407 472.5557262728582 215.94075063744424 489.47419847106016 208.5914154004244 504.2838774803196 203.77491525559765 519.093556489579 198.95841511077086 540.5562645894815 193.3806663168071 562.0189726893842 187.80291752284336 581.8843184332021 184.25039743980403 601.74966417702 180.6978773567647 620.1062004462219 178.06727395749473 638.4627367154238 175.43667055822476 653.0815586991723 174.06390110650307 667.7003806829208 172.69113165478137 687.7625198083367 171.45142453949808 707.8246589337527 170.21171742421475 726.7917194891713 169.30735544845527 745.75878004459 168.40299347269575 761.7575954656998 168.33803006291498 777.7564108868095 168.2730666531342 790.9115305918285 168.36229439408373 804.0666502968477 168.4515221350333 815.7910996308267 169.1709345704944 827.5155489648056 169.8903470059555 838.5947637733507 170.92686641831963 849.6739785818957 171.96338583068376 861.9962968366428 172.63277644668463 874.31861509139 173.3021670626855 887.1996845240645 175.98393317317542 900.080753956739 178.66569928366533 906.3615671654471 180.9871747867217 912.6423803741552 183.30865028977811 918.988513620094 186.27142988113087 925.3346468660327 189.2342094724836 926.3241021321173 189.81826835015866 927.3135573982021 190.40232722783372 928.1344802705108 191.20621287510838 928.9554031428196 192.01009852238303 929.5600815454429 192.98708906766723 930.1647599480661 193.96407961295142 930.5180499438329 195.05739231984958 930.8713399395996 196.15070502674774 930.9527082973565 197.29679650936583 931.0340766551134 198.44288799198392 930.8387942420845 199.57514735950332 930.6435118290557 200.70740672702274 930.1829284682617 201.76002701180425 929.7223451074676 202.81264729658574 929.0232299254782 203.7244501582207 928.3241147434887 204.63625301985564 927.427100347529 205.35424443318493 926.530085951569 206.07223584651422 925.487306860478 206.55468611686047 924.444527769387 207.03713638720674 923.3165903529339 207.2560054821896 922.1886529364806 207.4748745771725 921.0411129703053 207.41744181470807 919.8935730041301 207.36000905224364 918.7931255649838 207.02961242718482 917.6926781258376 206.69921580212596 917.6931147509962 206.69940685134463 Z" fill="hsl(0, 0%, 0%)"></path><path d="M 1085.6566431009726 61.54108139954469 Q 1085.6566431009726 61.54108139954469 1078.4537497912245 59.49582340356382 1071.2508564814764 57.45056540758295 1059.7879468024926 55.06783289495347 1048.3250371235088 52.68510038232398 1041.9749272374206 52.2026125032221 1035.6248173513325 51.72012462412022 1026.662057082012 50.86506148270041 1017.6992968126917 50.0099983412806 1011.2248757609769 49.79451290147901 1004.7504547092622 49.57902746167741 996.0778671010646 49.3090113731329 987.405279492867 49.03899528458838 979.6806882708399 48.96955443707127 971.9560970488128 48.90011358955416 964.9815661380388 49.291605199708194 958.0070352272649 49.68309680986223 947.1229149587261 51.22802284847984 936.2387946901874 52.77294888709744 926.6478207666439 54.72397649819244 917.0568468431004 56.675004109287435 909.5888786690734 58.79460706304009 902.1209104950465 60.91421001679274 895.3886363571996 63.70585416738608 888.6563622193528 66.49749831797942 881.6764807442494 70.2950599529203 874.6965992691458 74.09262158786117 867.6344367342788 78.16576586223317 860.5722741994116 82.23891013660517 851.8426396475783 89.87798671334141 843.1130050957449 97.51706329007764 838.0511472560001 103.04602599540897 832.9892894162554 108.57498870074028 827.170771949597 117.10970920970178 821.3522544829386 125.64442971866328 818.2079792300544 133.15046146112925 815.0637039771703 140.65649320359523 814.05832138647 147.13439683013004 813.0529387957696 153.61230045666485 815.2038906972381 159.90737849195907 817.3548425987066 166.20245652725328 827.0185675317863 174.12998549966446 836.682292464866 182.05751447207564 842.5636440115263 185.61085907177986 848.4449955581866 189.16420367148407 855.2021328398114 192.1297071570154 861.959270121436 195.0952106425467 872.0756088408684 197.8858186614553 882.1919475603008 200.6764266803639 897.2509158378894 204.74304560337896 912.3098841154779 208.80966452639402 928.9021239940166 212.2720412524231 945.4943638725553 215.73441797845217 962.0142089067024 218.1167355130943 978.5340539408494 220.49905304773645 996.7441096892844 222.4062265700785 1014.9541654377194 224.31340009242055 1034.7109625961598 225.99307565960956 1054.4677597546001 227.67275122679857 1073.9579007382513 228.42854056247182 1093.4480417219027 229.18432989814508 1113.6241406491126 228.7417651828539 1133.8002395763224 228.2992004675627 1152.385820194613 227.33901953937985 1170.9714008129035 226.37883861119698 1186.6959706497291 224.40545667619745 1202.4205404865547 222.43207474119794 1212.9802691174557 220.24316840915083 1223.5399977483567 218.0542620771037 1230.537833596688 215.6968731342427 1237.5356694450195 213.33948419138173 1246.0577046937392 208.12524832577492 1254.579739942459 202.91101246016808 1259.1526696714175 198.1108482958843 1263.725599400376 193.31068413160048 1265.3020781062178 186.24244791531493 1266.8785568120595 179.1742116990294 1265.9718092331814 172.3997979604323 1265.065061654303 165.62538422183516 1262.597795404387 158.12930182361902 1260.130529154471 150.6332194254029 1255.5101185629328 142.54566353172072 1250.8897079713945 134.45810763803857 1245.692509987474 129.23363302982818 1240.4953120035536 124.0091584216178 1231.4117107100383 115.39265434973846 1222.3281094165231 106.77615027785913 1212.5819977873784 98.48519322580734 1202.835886158234 90.19423617375553 1192.6115503237627 83.08137488307472 1182.3872144892914 75.96851359239389 1170.4635890823997 68.40134481110499 1158.5399636755078 60.834176029816106 1145.6094705222517 53.59106804280661 1132.6789773689954 46.347960055797124 1121.1437634491654 39.97142154475588 1109.6085495293353 33.59488303371463 1095.740283600577 27.348070916030164 1081.8720176718186 21.101258798345697 1080.94355746562 20.4944853733874 1080.0150972594213 19.887711948429104 1079.3289916989738 19.016235325877943 1078.6428861385261 18.144758703326787 1078.270970657123 17.099822715611356 1077.8990551757197 16.054886727895926 1077.88026942244 14.945896448766343 1077.8614836691602 13.836906169636759 1078.1977945173312 12.779973174062892 1078.534105365502 11.723040178489025 1079.1903009805428 10.828825630110673 1079.8464965955834 9.93461108173232 1080.7538731233803 9.296739479814413 1081.6612496511773 8.658867877896505 1082.724804529746 8.344124547541597 1083.7883594083148 8.029381217186689 1084.8967381611178 8.070719868167108 1086.005116913921 8.112058519147528 1087.0422719929566 8.505150983793282 1088.0794270719919 8.898243448439038 1088.9367680667021 9.601932841935383 1089.7941090614124 10.305622235431727 1090.3818721433356 11.246232092523636 1090.9696352252588 12.186841949615545 1091.2262814445628 13.265890169968607 1091.4829276638668 14.34493839032167 1091.381586093643 15.449448340423851 1091.2802445234188 16.553958290526033 1090.8315256528206 17.568287487039328 1090.3828067822224 18.582616683552626 1089.633691595452 19.400564591845182 1088.8845764086816 20.21851250013774 1087.9134974635413 20.75443975829406 1086.9424185184007 21.290367016450375 1085.851048036786 21.488161899070427 1084.7596775551715 21.68595678169048 1083.6622823146017 21.524910112351165 1082.5648870740322 21.363863443011855 1081.5763646458793 20.8608368505052 1080.5878422177263 20.357810257998544 1079.8116911611623 19.565470759346113 1079.0355401045983 18.77313126069368 1078.5530236401296 17.774437010561705 1078.0705071756609 16.775742760429726 1077.932144904489 15.675257310436692 1077.793782633317 14.574771860443656 1078.014061121758 13.487716327703783 1078.234339610199 12.400660794963912 1078.7901956423652 11.440850180709859 1079.3460516745313 10.481039566455806 1080.179286977123 9.74896629536537 1081.0125222797146 9.016893024274935 1082.035896896598 8.589205361079854 1083.0592715134812 8.161517697884772 1084.1656378521236 8.082994653820151 1085.272004190766 8.00447160975553 1086.3455254034593 8.283334568263008 1087.4190466161529 8.562197526770486 1087.4181061865504 8.561781499596545 1087.417165756948 8.561365472422604 1101.86446158469 14.835711148707075 1116.311757412432 21.110056824991545 1128.0192499807827 27.219445486148363 1139.7267425491334 33.32883414730518 1153.1922818381963 40.37493781611386 1166.657821127259 47.421041484922526 1179.118867356246 54.61374783560239 1191.5799135852333 61.80645418628225 1202.8938590125726 68.67472950121038 1214.207804439912 75.54300481613849 1224.9612548215537 83.17321726356923 1235.7147052031955 90.80342971099998 1246.5725136041774 98.90051958005611 1257.4303220051595 106.99760944911225 1267.1786439452933 118.59940423676848 1276.926965885427 130.2011990244247 1281.5815246798036 141.05435126097643 1286.23608347418 151.90750349752818 1288.1036648699387 161.60905971736975 1289.9712462656971 171.3106159372113 1288.8034083079826 179.92656202514496 1287.6355703502682 188.5425081130786 1284.6253836759702 195.56578896580197 1281.6151970016724 202.5890698185253 1276.6739708077598 207.47433459494994 1271.7327446138472 212.3595993713746 1263.1086185515153 217.20895393395273 1254.4844924891834 222.05830849653086 1248.0780364417933 224.92158817291954 1241.6715803944032 227.7848678493082 1233.8872944659106 229.59102588951043 1226.1030085374177 231.39718392971267 1215.0845068731255 233.34631273531886 1204.0660052088333 235.29544154092508 1187.8801710422633 237.4000668720263 1171.6943368756934 239.50469220312746 1152.920253949689 240.59511513492185 1134.1461710236845 241.68553806671625 1113.5716053843548 242.29555961088445 1092.997039745025 242.90558115505266 1073.1886415142085 242.36568004308438 1053.3802432833918 241.8257789311161 1033.4829853393157 240.45677109208975 1013.5857273952399 239.0877632530634 995.0775014916144 237.5939280542094 976.5692755879888 236.10009285535543 959.5061772071313 234.25240092767046 942.4430788262736 232.4047089999855 925.284996308294 229.68648628455557 908.1269137903143 226.96826356912564 892.8140081960399 224.037002925438 877.5011026017655 221.10574228175037 865.194940672559 218.74784331811406 852.8887787433525 216.38994435447773 844.6106483854867 212.89983911815474 836.332518027621 209.40973388183176 829.4709532419323 205.31813889932363 822.6093884562437 201.2265439168155 812.9416255952951 194.61226255138564 803.2738627343467 187.99798118595578 797.015587544191 177.95546816448274 790.7573123540354 167.91295514300967 789.710869864221 159.3590330737975 788.6644273744065 150.80511100458534 790.5356906349697 142.5427719412577 792.4069538955329 134.28043287793008 796.9784034960301 124.64255909286442 801.5498530965274 115.00468530779875 809.378840832954 104.5160682516014 817.2078285693806 94.02745119540404 823.1649425471248 87.60276181000097 829.1220565248691 81.17807242459789 839.7544476955835 72.84349372336217 850.3868388662979 64.50891502212647 857.7237107099807 60.340365822620015 865.0605825536635 56.17181662311356 873.0989619727122 51.89423999532686 881.1373413917609 47.61666336754017 888.9941910030223 44.61124586953394 896.8510406142836 41.60582837152771 904.8486024416051 39.516185945906585 912.8461642689265 37.42654352028547 922.6690759930867 35.13200519428837 932.491987717247 32.83746686829126 944.6534143886179 30.051366834008892 956.8148410599888 27.265266799726525 964.4553457741401 26.89700850274116 972.0958504882915 26.52875020575579 979.8978409641586 26.55783935650499 987.6998314400256 26.586928507254186 996.6985572420845 26.54874770874804 1005.6972830441432 26.51056691024189 1012.5097342513957 26.84057627053058 1019.3221854586482 27.170585630819268 1028.4193387478813 27.599039666082486 1037.5164920371142 28.027493701345705 1045.3676077001041 28.678869399374257 1053.218723363094 29.330245097402813 1065.3647348324105 32.12050829431179 1077.5107463017268 34.910771491220764 1084.7371101941271 36.87364585760562 1091.9634740865274 38.83652022399047 1093.276086601219 39.37881163206856 1094.588699115911 39.92110304014665 1095.7333842012745 40.76177398668089 1096.8780692866383 41.60244493321514 1097.7882977917295 42.692635583294226 1098.6985262968208 43.782826233373314 1099.3213956981572 45.05917465519225 1099.9442650994936 46.33552307701118 1100.2435741982035 47.72384784032488 1100.5428832969137 49.11217260363857 1100.5012362341176 50.531784207973075 1100.4595891713218 51.951395812307574 1100.0794064762663 53.319786364518805 1099.6992237812105 54.68817691673003 1099.0026016899947 55.925815493629905 1098.3059795987788 57.16345407052978 1097.3334058200749 58.198409059878685 1096.360832041371 59.23336404922759 1095.1688326088934 60.00548381841742 1093.9768331764155 60.777603587607246 1092.634687153186 61.24201249937479 1091.2925411299561 61.70642141114233 1089.8782541059045 61.83612799771551 1088.463967081853 61.96583458428868 1087.0597374852678 61.75330029276161 1085.6555078886827 61.54076600123454 1085.6560754948277 61.54092370038961 Z" fill="hsl(0, 0%, 0%)"></path><path d="M 479.81919127417757 406.59402351131797 Q 479.81919127417757 406.59402351131797 475.08513229001505 411.0840939585921 470.3510733058525 415.57416440586627 463.32258437679025 424.026289074598 456.29409544772795 432.47841374332984 446.9402670266775 443.5622958040793 437.58643860562705 454.64617786482876 433.01986299378785 460.1863944476996 428.45328738194866 465.72661103057044 421.367191134261 474.1614895689847 414.2810948865734 482.5963681073989 408.0073387400962 490.3064803793233 401.733582593619 498.0165926512477 392.70572719087056 508.6170225656504 383.67787178812205 519.2174524800531 375.7289664948564 528.8139538127148 367.78006120159085 538.4104551453763 361.26547182009654 546.3292807672724 354.7508824386023 554.2481063891685 349.9155544302504 561.3886565182606 345.0802264218985 568.5292066473528 341.64848309773237 574.6997357103955 338.21673977356625 580.8702647734383 334.2870193266263 587.3657152973524 330.35729887968637 593.8611658212666 327.3482922537985 599.6082068126987 324.3392856279106 605.3552478041306 319.76553223598 615.791317401424 315.1917788440494 626.2273869987173 313.048899574866 633.109168094211 310.9060203056827 639.9909491897047 310.4421755182876 642.7210600248031 309.9783307308925 645.4511708599016 309.3594258509046 647.1975033958365 308.7405209709167 648.9438359317716 307.5963920724263 650.4011243864632 306.45226317393593 651.8584128411546 304.9027008546358 652.8740787287097 303.3531385353356 653.8897446162647 301.56038237910104 654.3574474501465 299.76762622286645 654.8251502840284 297.91937827249694 654.695921454068 296.0711303221275 654.5666926241075 294.3609026259168 653.8540624229149 292.65067492970616 653.1414322217222 291.2575287789038 651.9200132194783 289.86438262810145 650.6985942172344 288.93418079245134 649.0962693058973 288.00397895680123 647.4939443945603 287.63411381404535 645.67847741532 287.26424867128947 643.8630104360797 287.4934451995092 642.0244812608992 287.722641727729 640.1859520857186 288.52690298991786 638.5168552045639 289.33116425210665 636.8477583234092 290.62628388180906 635.5228486203359 291.9214035115114 634.1979389172627 293.5717821416191 633.355934787925 295.2221607717268 632.5139306585872 297.0550033240099 632.242990157594 298.88784587629294 631.9720496566009 300.71125325170397 632.3005403259277 302.53466062711493 632.6290309952545 304.15772159211554 633.5225597751097 305.7807825571161 634.4160885549649 307.0335622002242 635.7811027462287 308.28634184333225 637.1461169374927 309.03767380521276 638.8396991940112 309.7890057670933 640.5332814505299 309.9602253930049 642.3781132629834 310.13144501891657 644.222945075437 309.7046255688288 646.0258720660732 309.27780611874107 647.8287990567095 308.2976357017475 649.4010542936824 307.31746528475395 650.9733095306553 305.8865680022536 652.1502774756186 304.45567071975336 653.327245420582 302.7238618949443 653.9856972190088 300.9920530701353 654.6441490174356 299.1406535441281 654.7151445922161 297.28925401812097 654.7861401669967 295.51210581001067 654.2622462627105 293.7349576019003 653.7383523584242 292.2181285981976 652.6744208051446 290.70129959449486 651.6104892518649 289.6036021922913 650.1179139640708 288.50590479008775 648.6253386762768 287.9422681971581 646.860392680602 287.3786316042285 645.0954466849271 287.4080687206381 643.2429202930191 287.43750583704764 641.3903939011112 287.43720127877344 641.3920844629909 287.43689672049925 641.3937750248706 290.1715700585987 633.1884172218912 292.90624339669813 624.9830594189118 297.06399502151737 616.8720444680173 301.2217466463366 608.7610295171229 304.21874671656326 602.2457385976991 307.21574678678996 595.7304476782754 310.8276238330938 589.7159688225572 314.43950087939766 583.7014899668392 318.5436435392462 577.6121495647844 322.64778619909475 571.5228091627296 326.8021581870872 565.0577447441726 330.9565301750796 558.5926803256157 336.4261572555382 551.0917956829751 341.89578433599684 543.5909110403345 348.31105610671295 535.9211219017657 354.7263278774291 528.2513327631968 362.11121058649223 518.1444198272094 369.4960932955554 508.0375068912219 377.6859190782036 496.79728676289324 385.87574486085185 485.55706663456465 391.82149103249554 477.7148308050257 397.76723720413924 469.8725949754868 404.34345511949334 460.57549198322897 410.91967303484745 451.27838899097117 415.86557627573063 445.2751667959051 420.8114795166138 439.27194460083894 429.69687459584054 428.7423610098092 438.5822696750672 418.2127774187795 442.6824883305868 413.32296533712366 446.78270698610646 408.4331532554678 451.1995471562891 403.9694541415977 455.61638732647174 399.5057550277275 460.50183899294393 395.1779421742204 465.3872906594162 390.8501293207133 466.43410802322205 390.10103688667635 467.480925387028 389.35194445263943 468.6765973619175 388.8751482735851 469.872269336807 388.3983520945308 471.14730341142103 388.2215635867879 472.4223374860351 388.044775079045 473.70262862004995 388.1782691989899 474.9829197540648 388.31176331893477 476.1940573666173 388.7477813820441 477.4051949791698 389.18379944515334 478.4767876953133 389.89700006111286 479.5483804114568 390.61020067707244 480.4181472121805 391.55913259257306 481.2879140129042 392.50806450807374 481.9053040108842 393.63757575560123 482.5226940088642 394.7670870031288 482.85182446841 396.01153033590697 483.1809549279558 397.25597366868516 483.2026967712944 398.54302198174304 483.2244386146331 399.8300702948009 482.93752820480813 401.08492027971187 482.65061779498325 402.3397702646228 482.0717303784943 403.4894899813049 481.4928429620053 404.63920969798704 480.65562350269744 405.6169773824874 479.8184040433896 406.59474506698774 479.8187976587836 406.59438428915286 Z" fill="hsl(0, 0%, 0%)"></path><path d="M 667.7157318502474 402.0492395933494 Q 667.7157318502474 402.0492395933494 668.4414530591523 415.71892357994443 669.1671742680572 429.38860756653946 670.2232625346498 441.1211179192715 671.2793508012425 452.85362827200356 671.8823640348412 463.3110810858484 672.48537726844 473.76853389969324 673.0297074146624 484.9235346597551 673.5740375608849 496.0785354198169 673.5906985215331 508.98924748391653 673.6073594821812 521.8999595480162 673.8239106671135 532.1693949611432 674.0404618520458 542.4388303742702 674.1091116304356 553.2270708909956 674.1777614088253 564.015311407721 674.0363256735325 572.4077082598976 673.8948899382395 580.8001051120743 674.0098590510511 587.3973615493726 674.1248281638627 593.994617986671 674.0955852443897 605.892111057246 674.0663423249166 617.789604127821 674.2147408079063 624.5217030693725 674.363139290896 631.2538020109239 674.5461084261178 636.7345752858554 674.7290775613395 642.2153485607869 674.4298618187995 643.9895109422306 674.1306460762594 645.7636733236743 673.2805841615982 647.3494150925497 672.4305222469369 648.9351568614252 671.118615867014 650.166450435936 669.8067094870911 651.3977440104468 668.1703155861942 652.1456726283116 666.5339216852973 652.8936012461764 664.7443711368163 653.079856583671 662.9548205883353 653.2661119211656 661.1994798070916 652.8711929952874 659.444139025848 652.4762740694093 657.9067926550028 651.5415289959465 656.3694462841577 650.6067839224836 655.2110548945586 649.2300807573763 654.0526635049595 647.853377592269 653.3945109808831 646.1788575203184 652.7363584568066 644.5043374483677 652.647353541259 642.7073231631373 652.5583486257115 640.9103088779068 653.0478101568456 639.178948249426 653.5372716879798 637.4475876209451 654.5539529142807 635.9631545640506 655.5706341405815 634.478721507156 657.0080882692776 633.3966365547569 658.4455423979737 632.3145516023579 660.1532676023394 631.7481093346132 661.8609928067051 631.1816670668684 663.6601898070478 631.1901741387371 665.4593868073905 631.1986812106059 667.1616792028324 631.7812469294176 668.8639715982741 632.3638126482294 670.2911289256508 633.4594422294424 671.7182862530275 634.5550718106554 672.7208847634297 636.0490525478983 673.723483273832 637.5430332851413 674.1965506385604 639.2789450008523 674.6696180032887 641.0148567165634 674.5636239443786 642.8109489958713 674.4576298854685 644.6070412751792 673.7836720088674 646.2752627823182 673.1097141322662 647.9434842894573 671.9383560055619 649.3091717922621 670.7669978788575 650.674859295067 669.2208810071244 651.5950249514876 667.6747641353912 652.5151906079084 665.9157673632351 652.8934928308174 664.1567705910788 653.2717950537264 662.3690613448744 653.068625500523 660.5813520986699 652.8654559473197 658.9521040084041 652.1020865238561 657.3228559181384 651.3387171003924 656.022651688942 650.095072786815 654.7224474597455 648.8514284732375 653.8874188176358 647.257719157468 653.052390175526 645.6640098416987 652.7699648397581 643.8870973097967 652.4875395039902 642.1101847778948 652.4875316167064 642.1118528932616 652.4875237294226 642.1135210086284 652.776487951468 636.4251581247473 653.0654521735134 630.7367952408663 653.7346598207771 623.559538188262 654.4038674680407 616.3822811356578 655.3718563731726 604.9735729133027 656.3398452783044 593.5648646909477 656.7778228903669 586.7951615700911 657.2158005024293 580.0254584492343 657.8343847653737 572.0556417500536 658.452969028318 564.085825050873 658.423677867358 553.3504188497907 658.3943867063981 542.6150126487083 658.3804886222722 532.4194028492087 658.3665905381463 522.2237930497091 657.84101792454 509.61564155055135 657.3154453109336 497.0074900513935 656.5839317530279 485.8416633728624 655.8524181951221 474.67583669433134 655.3396695306801 464.67878952915703 654.8269208662381 454.6817423639827 653.2576870197936 442.80634217899507 651.6884531733491 430.9309419940074 650.0093098803009 417.34533118079776 648.3301665872526 403.7597203675881 648.3686634282576 402.5874401609798 648.4071602692627 401.4151599543715 648.7250921630377 400.2861594227093 649.0430240568128 399.1571588910471 649.6219127867537 398.137055598277 650.2008015166947 397.11695230550697 651.0070020426184 396.26503470293426 651.8132025685421 395.4131171003615 652.7998584780028 394.7788986790747 653.7865143874633 394.14468025778797 654.8962811926451 393.765021822231 656.0060479978268 393.3853633866741 657.1744259998706 393.2823307029597 658.3428040019143 393.1792980192454 659.5018870164449 393.358879351792 660.6609700309757 393.53846068433865 661.7433920987298 393.99021875766107 662.8258141664838 394.44197683098355 663.7686648660259 395.1396554446345 664.711515565568 395.83733405828553 665.4599963699411 396.74038409845934 666.2084771743141 397.6434341386332 666.7190863440007 398.69937029456537 667.2296955136875 399.7553064504976 667.4727564197548 400.90275766319235 667.7158173258221 402.0502088758871 667.7157745880347 402.0497242346182 Z" fill="hsl(0, 0%, 0%)"></path><path d="M 860.2732032270112 397.53832686633115 Q 860.2732032270112 397.53832686633115 862.646467407779 404.3608469132834 865.019731588547 411.1833669602357 869.8318791111574 421.0667480430622 874.6440266337677 430.95012912588874 877.3055548387711 436.6999804444116 879.9670830437744 442.4498317629345 883.2678253404931 449.0537209807371 886.5685676372117 455.6576101985398 890.5964735407447 463.28921630413737 894.6243794442778 470.9208224097349 897.5696023749567 478.03710411335624 900.5148253056356 485.1533858169775 903.8172887032988 492.49369129131776 907.1197521009622 499.83399676565796 910.4085122739051 505.3841893631752 913.697272446848 510.93438196069246 918.7740584083931 520.3435235434863 923.8508443699383 529.7526651262801 928.3833374292283 538.9436467662686 932.9158304885182 548.134628406257 936.5389393597624 556.2276951930822 940.1620482310066 564.3207619799075 944.4676749126427 572.0665180989176 948.7733015942789 579.8122742179277 952.7050074862356 587.1557495805696 956.6367133781922 594.4992249432115 957.5377635720336 596.4763157580413 958.4388137658749 598.4534065728711 958.6613863587509 600.6147119614745 958.8839589516269 602.7760173500781 958.40475053431 604.8952480677392 957.925542116993 607.0144787854002 956.794725937275 608.8697508165574 955.663909757557 610.7250228477144 953.9998825679609 612.1220887209611 952.3358553783646 613.5191545942077 950.3128412649015 614.3117411438254 948.2898271514384 615.1043276934432 946.1196362258117 615.2094508984645 943.9494453001852 615.3145741034858 941.859297125183 614.721227536595 939.7691489501809 614.1278809697044 937.9778825914714 612.8981881730834 936.1866162327618 611.6684953764625 934.8817777509503 609.9312055105249 933.5769392691387 608.1939156445873 932.8951455977146 606.1309234168966 932.2133519262907 604.067931189206 932.2259870426283 601.8952324305785 932.238622158966 599.7225336719512 932.9443631630494 597.6676105159521 933.6501041671328 595.612687359953 934.9750597895369 593.8906908034623 936.300015411941 592.1686942469718 938.1054624492458 590.9599177840171 939.9109094865506 589.7511413210624 942.0078171573585 589.182144166401 944.1047248281665 588.6131470117397 946.2735463458141 588.7435033176653 948.4423678634618 588.873859623591 950.456027042538 589.6899210504625 952.4696862216143 590.5059824773341 954.1173524145156 591.9223071783388 955.765018607417 593.3386318793434 956.874180728805 595.2069302844127 957.9833428501928 597.0752286894818 958.4378713331677 599.1998894624219 958.8923998161425 601.324550235362 958.6447054085529 603.4831208323902 958.3970110009634 605.6416914294184 957.4730273726691 607.6081689392186 956.5490437443747 609.5746464490188 955.0455122251659 611.1431401572152 953.5419807059571 612.7116338654116 951.6163214427888 613.717922066714 949.6906621796206 614.7242102680162 947.5444922056713 615.0629343221138 945.3983222317221 615.4016583762115 943.256346109798 615.0373537852258 941.1143699878739 614.6730491942403 939.2008531833674 613.6438587450148 937.2873363788609 612.6146682957893 935.8026246063231 611.0283485000377 934.3179128337853 609.4420287042861 934.3190335440758 609.4437026143395 934.3201542543662 609.4453765243928 932.2888991251891 605.7200465237628 930.2576439960119 601.9947165231328 927.6899304641097 596.2194728682349 925.1222169322074 590.444229213337 920.9972103994673 582.360871516099 916.8722038667274 574.277513818861 913.6522112449671 566.1881809008818 910.4322186232068 558.0988479829025 906.8140359920149 549.8174129049121 903.1958533608228 541.5359778269217 898.5413032352214 531.9890504007526 893.88675310962 522.4421229745835 890.1741696447509 515.9512157684362 886.4615861798818 509.460308562289 882.7212511282814 501.67184720769455 878.980916076681 493.88338585310004 876.6718579594601 488.03675313156236 874.3627998422392 482.19012041002475 869.8000555147303 474.41020739484395 865.2373111872215 466.63029437966316 861.5280741087404 459.60592837359854 857.8188370302594 452.5815623675339 853.0207510475395 442.060936676423 848.2226650648197 431.54031098531215 845.4303958763201 425.31646487142496 842.6381266878203 419.09261875753776 840.2016267694671 412.2874914045877 837.7651268511138 405.4823640516376 837.4533501910864 404.0779747354511 837.141573531059 402.67358541926455 837.1749599592872 401.23539232250505 837.2083463875155 399.7971992257455 837.5849554832222 398.4087901987698 837.9615645789289 397.02038117179404 838.6595078037767 395.76245061248414 839.3574510286245 394.5045200531742 840.3361638895924 393.45017894474074 841.3148767505603 392.3958378363073 842.5174764101844 391.6063645335105 843.7200760698083 390.81689123071374 845.0766673793672 390.33816995900537 846.4332586889261 389.859448687297 847.8649964977691 389.7193027494814 849.296734306612 389.5791568116658 850.7204059460192 389.78573149623355 852.1440775854264 389.9923061808013 853.4769391928246 390.5335953573794 854.8098008002228 391.0748845339575 855.9743863963657 391.9194284501709 857.1389719925087 392.76397236638434 858.0675958078307 393.862686090142 858.9962196231528 394.9613998138996 859.6349099978762 396.2504260519539 860.2736003725996 397.53945229000817 860.2734017998055 397.5388895781697 Z" fill="hsl(0, 0%, 0%)"></path><path d="M 970.1039025960399 329.2177489655764 Q 970.1039025960399 329.2177489655764 973.7410161871974 335.6127691004233 977.3781297783548 342.00778923527025 985.2303142822203 351.74837378518106 993.0824987860858 361.48895833509187 998.651474599425 367.01651707803796 1004.2204504127643 372.54407582098406 1010.3865102008319 379.23143098640514 1016.5525699888996 385.9187861518263 1023.5979857042785 393.09159739197503 1030.6434014196573 400.2644086321238 1038.455202485466 408.9059242871357 1046.267003551275 417.54743994214766 1051.8631752002207 422.2993438512393 1057.4593468491664 427.051247760331 1063.4348047393132 433.01757975079414 1069.4102626294598 438.98391174125726 1075.6906686045993 444.91690733697067 1081.9710745797388 450.849902932684 1088.1752861816904 457.7197760515353 1094.3794977836421 464.5896491703866 1102.820418910097 472.1655213808545 1111.261340036552 479.7413935913224 1118.042086063882 485.6116278001476 1124.822832091212 491.48186200897277 1130.7070463092787 495.6045230670502 1136.5912605273454 499.7271841251277 1137.8923042364097 501.1571351534257 1139.193347945474 502.58708618172375 1139.9696822750657 504.35761708654405 1140.7460166046576 506.12814799136436 1140.916359145536 508.0538837195975 1141.0867016864145 509.97961944783054 1140.6332175295838 511.85893496038557 1140.1797333727532 513.7382504729406 1139.1499024291415 515.374380939562 1138.1200714855302 517.0105114061834 1136.6217173267828 518.2321535351192 1135.1233631680354 519.4537956640551 1133.3133638701001 520.1330432019238 1131.503364572165 520.8122907397924 1129.5712275393294 520.878026290075 1127.6390905064936 520.9437618403578 1125.7871109961297 520.3891028735873 1123.9351314857659 519.8344439068168 1122.3572122414841 518.7174633632299 1120.7792929972024 517.6004828196428 1119.6406425804093 516.0381288570071 1118.5019921636163 514.4757748943714 1117.9218275735248 512.6316263849964 1117.341662983433 510.78747787562133 1117.380727605774 508.8546176552464 1117.4197922281148 506.92175743487144 1118.0739959866173 505.10255647879546 1118.7281997451196 503.2833555227195 1119.9290473335752 501.76828465126596 1121.1298949220309 500.2532137798125 1122.7516572809354 499.20090131316255 1124.37341963984 498.1485888465126 1126.2462978221124 497.669212177708 1128.1191760043848 497.1898355089034 1130.0470791699495 497.33358550171107 1131.9749823355141 497.47733549451874 1133.7560585140195 498.22916148674545 1135.5371346925247 498.98098747897217 1136.9849047379225 500.262173090769 1138.4326747833202 501.5433587025658 1139.3955567896833 503.2197634621774 1140.3584387960464 504.8961682217891 1140.7356187631326 506.7922721083563 1141.1127987302186 508.68837599492355 1140.864785815908 510.60565643099994 1140.616772901597 512.5229368670764 1139.7695341234867 514.2606540848919 1138.9222953453764 515.9983713027076 1137.5645368271842 517.3745858508441 1136.206778308992 518.7508003989807 1134.4806577259858 519.6214222509631 1132.7545371429796 520.4920441029454 1130.840779775852 520.7659189210492 1128.9270224087245 521.039793739153 1127.0259991589965 520.6882467576266 1125.1249759092686 520.3366997761003 1123.4357244130083 519.3965380567092 1121.746472916748 518.4563763373181 1121.7478776061744 518.4574896963973 1121.7492822956008 518.4586030554764 1115.5322347483336 513.1686247677791 1109.3151872010665 507.8786464800817 1102.6024243805193 501.18229108972 1095.8896615599722 494.4859356993583 1087.7648217740618 486.18960741949115 1079.6399819881515 477.893279139624 1073.9775169927138 471.59300390879037 1068.315051997276 465.2927286779568 1061.7633219758004 459.09891862953566 1055.2115919543248 452.9051085811146 1049.8555260955427 447.3134182293357 1044.4994602367608 441.7217278775568 1038.5226790619406 436.25392309591825 1032.5458978871204 430.78611831427975 1024.444396295447 422.92594728947154 1016.3428947037734 415.06577626466327 1008.5794293385868 407.9314554301661 1000.8159639734002 400.797134595669 994.7716991084372 394.56861029317326 988.7274342434742 388.3400859906776 982.5418311110336 382.3391600997846 976.3562279785931 376.33823420889155 967.2535174839082 364.5831919997501 958.1508069892234 352.8281497906087 954.5732568840917 346.39714987540674 950.9957067789601 339.96614996020486 950.4914426834307 338.7448044413179 949.9871785879012 337.523458922431 949.7898646549676 336.2169236697817 949.5925507220339 334.91038841713237 949.713654846749 333.59459932099185 949.834758971464 332.2788102248513 950.2672425764091 331.0302410093094 950.6997261813542 329.78167179376754 951.4184532990898 328.67288936029536 952.1371804168256 327.5641069268231 953.1003785934998 326.6595537625499 954.0635767701741 325.7550005982767 955.2152648825029 325.1072493756103 956.3669529948316 324.4594981529439 957.6401948756145 324.10619620338014 958.9134367563975 323.7528942538164 960.2342315277004 323.71457550326375 961.5550262990034 323.67625675271114 962.8466093066611 323.9551482887521 964.1381923143188 324.2340398247931 965.3254966932411 324.8139324582494 966.5128010721636 325.3938250917056 967.5268206360627 326.2410154354745 968.5408401999616 327.08820577924337 969.32264008414 328.15345509074 970.1044399683183 329.21870440223665 970.1041712821791 329.21822668390655 Z" fill="hsl(0, 0%, 0%)"></path><path d="M 1036.2204628190264 301.1083303594789 Q 1036.2204628190264 301.1083303594789 1046.238365368073 299.88288918584897 1056.2562679171194 298.6574480122191 1064.3392423936846 297.91990429460276 1072.4222168702497 297.1823605769864 1083.690340646655 296.3671142099281 1094.9584644230601 295.55186784286985 1108.4542489919822 295.4154291075786 1121.9500335609046 295.27899037228724 1133.659403086893 295.1938577144561 1145.3687726128815 295.10872505662496 1163.5882365838843 295.2282273559082 1181.8077005548873 295.3477296551915 1199.1601015350907 295.4581330395164 1216.5125025152943 295.56853642384124 1232.942214134021 294.86102976230467 1249.3719257527478 294.1535231007681 1266.1399047980117 293.87895915326266 1282.9078838432756 293.6043952057572 1303.6660879094366 293.51116485633156 1324.4242919755975 293.41793450690597 1341.9101472411403 292.59716854729675 1359.3960025066833 291.7764025876875 1371.7560245495083 291.4084841801393 1384.1160465923333 291.04056577259104 1394.3362103852749 289.88672085423326 1404.5563741782164 288.7328759358755 1405.6656544831553 288.81176582288776 1406.774934788094 288.8906557099001 1407.8009536876427 289.31962147422985 1408.8269725871914 289.7485872385596 1409.6623056317244 290.48271605144544 1410.4976386762576 291.21684486433134 1411.054826275506 292.17927324527295 1411.6120138747542 293.1417016262146 1411.8327183399933 294.2316630696711 1412.0534228052322 295.32162451312746 1411.9145363206912 296.4249997682469 1411.7756498361503 297.5283750233663 1411.291713853423 298.529640409675 1410.8077778706956 299.53090579598364 1410.0294606149205 300.32522856322663 1409.251143359145 301.1195513304696 1408.2599348524573 301.62376567523575 1407.2687263457697 302.12798002000187 1406.1684063804732 302.2892945672944 1405.0680864151768 302.450609114587 1403.9738587820946 302.2521341887216 1402.8796311490123 302.0536592628562 1401.906061770176 301.5161752409632 1400.9324923913396 300.97869121907024 1400.1815142377106 300.15847282012385 1399.4305360840817 299.3382544211775 1398.980776766584 298.32117872806407 1398.5310174490864 297.30410303495063 1398.4295668869872 296.196658141221 1398.328116324888 295.0892132474914 1398.585596418819 294.00734892585615 1398.8430765127503 292.9254846042209 1399.432529028909 291.98247233473967 1400.0219815450678 291.0394600652585 1400.8816906494121 290.33403348147704 1401.7413997537565 289.6286068976956 1402.7813536761203 289.23462434915035 1403.821307598484 288.8406418006051 1404.9326228886748 288.79935336413007 1406.0439381788653 288.758064927655 1407.110259832641 289.0737935134482 1408.1765814864168 289.38952209924145 1409.0862653451459 290.02921084102604 1409.9959492038747 290.6688995828107 1410.6537511274148 291.56557290046044 1411.311553050955 292.4622462181102 1411.6486010042686 293.52202217856836 1411.9856489575823 294.5817981390266 1411.9666539309856 295.6937179194796 1411.9476589043888 296.8056376999326 1411.5746096821808 297.85328300584865 1411.2015604599726 298.90092831176474 1410.5135153941935 299.7746104030629 1409.8254703284144 300.6482924943611 1408.8944679190777 301.2565366254528 1407.9634655097411 301.8647807565445 1406.8869819548654 302.14390360634366 1405.8104983999897 302.42302645614274 1405.8115251612862 302.4229323968254 1405.812551922583 302.42283833750804 1395.1577716531974 303.18445814992714 1384.5029913838118 303.94607796234624 1372.2659052698748 304.3127713926095 1360.0288191559378 304.6794648228727 1342.2733098131985 305.5871973051728 1324.5178004704594 306.4949297874729 1303.8510680502213 306.69639059617043 1283.1843356299833 306.8978514048679 1266.611981295025 307.31667841765204 1250.039626960067 307.7355054304362 1233.2898633229402 308.65950691075756 1216.5400996858134 309.5835083910789 1199.2052918264167 309.76039046281755 1181.8704839670202 309.93727253455626 1163.7411888002694 310.2131952748132 1145.6118936335183 310.48911801507006 1134.0388183477883 310.77203345364745 1122.4657430620582 311.05494889222484 1109.471993250926 311.7845056778948 1096.4782434397937 312.5140624635647 1085.0277491551333 313.73645261641536 1073.5772548704729 314.95884276926597 1065.9282974317548 315.24337392271286 1058.2793399930367 315.52790507615975 1048.2566114385677 316.70734595209046 1038.2338828840986 317.8867868280211 1037.2153871829948 317.88535574277216 1036.196891481891 317.88392465752327 1035.2083357815936 317.6387855774452 1034.2197800812962 317.39364649736723 1033.3186192855537 316.919046917312 1032.417458489811 316.44444733725686 1031.6560681064127 315.7679710071163 1030.8946777230144 315.0914946769757 1030.317309796817 314.2524584328416 1029.7399418706198 313.4134221887075 1029.3801530526218 312.46059085651086 1029.020364234624 311.5077595243143 1028.8990654678319 310.49651170585105 1028.7777667010396 309.4852638873878 1028.9020078754784 308.4743733533803 1029.0262490499172 307.46348281937276 1029.3888092626912 306.511702575154 1029.7513694754653 305.5599223309352 1030.3311767099733 304.7225698890183 1030.9109839444814 303.8852174471014 1031.6743397770115 303.2109597707535 1032.4376956095416 302.5367020944056 1033.3402337632413 302.0647270714559 1034.242771916941 301.5927520485061 1035.2320368319115 301.350490889464 1036.2213017468819 301.10822973042195 1036.220882282954 301.10828004495045 Z" fill="hsl(0, 0%, 0%)"></path></svg>