<svg xmlns="http://www.w3.org/2000/svg" version="1.1" xmlns:xlink="http://www.w3.org/1999/xlink" viewBox="0 0 1422 800" style="overflow: hidden; display: block;" width="1422" height="800"><defs></defs><g id="two-0" transform="matrix(1 0 0 1 0 0)" opacity="1"></g><path d="M 497.38986609589557 648.2719116210938 Q 497.38986609589557 648.2719116210938 497.2733126860347 641.0572654724122 497.1567592761739 633.8426193237304 497.0263375334729 627.1690804100036 496.8959157907718 620.4955414962768 496.7946566792837 613.6511507086753 496.6933975677956 606.8067599210739 496.70524155857544 598.6873248360992 496.71708554935526 590.5678897511243 496.91816788240783 580.7041110411819 497.11925021546045 570.8403323312396 497.2216451618765 561.4376573792699 497.3240401082925 552.0349824273003 497.3837145835389 542.828276572469 497.4433890587854 533.6215707176377 497.9608269175725 516.4818782305551 498.47826477635965 499.3421857434726 498.8534092976076 485.64491645187616 499.2285538188555 471.94764716027976 498.8443079102585 461.47086711947225 498.4600620016616 450.99408707866473 498.0712293965562 442.8045350772031 497.68239679145074 434.61498307574146 497.356182532135 427.9154408596422 497.02996827281925 421.215898643543 496.1822099402759 412.33449948857947 495.33445160773255 403.45310033361585 494.3573251928609 394.16910973049403 493.38019877798934 384.88511912737226 496.39469511479626 374.03997976369254 499.40919145160314 363.1948404000128 511.55692923579306 361.5976769994173 523.7046670199829 360.0005135988217 533.4676896621527 360.15588296820897 543.2307123043225 360.3112523375962 555.3953855849677 360.8217659626797 567.5600588656127 361.33227958776325 582.1857595544416 362.58284878404316 596.8114602432705 363.8334179803231 611.8064858827488 365.3046389159091 626.8015115222272 366.77585985149517 642.2746325925058 367.89280328279375 657.7477536627844 369.00974671409233 673.8518137260955 369.55310878201385 689.9558737894066 370.0964708499353 705.22557983504 370.380557978832 720.4952858806735 370.66464510772863 735.8015859557088 370.82308796158736 751.1078860307441 370.9815308154461 764.0275058253457 371.07612144281944 776.9471256199472 371.1707120701928 787.6480921770599 371.01239700216365 798.3490587341726 370.8540819341345 813.5421313899684 370.15676568201707 828.7352040457642 369.4594494298997 837.9606812597585 368.4556370359853 847.1861584737529 367.4518246420709 855.2981321668683 366.3776552607068 863.4101058599837 365.3034858793427 869.4681914626104 363.35965728701296 875.5262770652372 361.41582869468317 886.0328272275062 360.9148338540622 896.5393773897754 360.41383901344113 899.3124634056262 367.268149820967 902.085549421477 374.1224606284929 902.4757578162611 381.0373088516218 902.8659662110451 387.9521570747507 903.1113130551472 395.9275988891318 903.3566598992493 403.9030407035129 900.6046555332518 427.5122004684382 897.8526511672543 451.1213602333636 896.325257965434 465.07862013080717 894.7978647636139 479.03588002825074 893.9643700766783 495.19676241250187 893.1308753897428 511.357644796753 892.0874341354283 522.2077110615917 891.0439928811139 533.0577773264305 890.8934571509872 539.8312132508315 890.7429214208603 546.6046491752325 890.4759620552138 556.9547944652411 890.2090026895675 567.3049397552496 890.5949836654282 576.5770500962726 890.980964641289 585.8491604372957 891.4732859200151 594.0150952060596 891.9656071987412 602.1810299748236 892.9023014368175 608.9741793382445 893.8389956748939 615.7673287016655 894.3038852700506 622.8009996198368 894.7687748652074 629.8346705380083 891.657479009191 641.4258506799418 888.5461831531745 653.0170308218754 882.0717168436466 656.0344473816685 875.5972505341188 659.0518639414618 864.9989290637441 660.200192803479 854.4006075933693 661.3485216654964 848.0257115925889 662.4002591512447 841.6508155918085 663.451996636993 829.6736741952716 664.2902136089208 817.6965327987348 665.1284305808485 811.0242390980097 665.5205996457565 804.3519453972846 665.9127687106645 797.152867114151 666.0576616487863 789.9537888310175 666.202554586908 783.598304698229 666.9736280222912 777.2428205654405 667.7447014576743 770.6697792081134 668.1653791510412 764.0967378507862 668.5860568444081 745.7336280735149 668.657733963753 727.3705182962435 668.729411083098 718.741767576295 669.4670641771056 710.1130168563466 670.2047172711132 702.4037119325203 670.6500105388982 694.694407008694 671.0953038066831 688.1824636892495 671.3700951451302 681.670520369805 671.6448864835774 670.897765848354 672.005119048167 660.125011326903 672.3653516127565 651.1520312927667 672.634701725636 642.1790512586304 672.9040518385154 635.4030345306032 673.7016480362777 628.627017802576 674.4992442340399 619.577790738558 675.6686661441552 610.52856367454 676.8380880542705 601.8322585051674 677.7281448180789 593.1359533357947 678.6182015818873 586.1881887281002 679.1432162195542 579.2404241204055 679.6682308572213 570.4971468153958 679.8160713751578 561.7538695103862 679.9639118930943 554.7705507053813 680.1779902974436 547.7872319003765 680.3920687017927 541.0452455908894 680.5867583918564 534.3032592814022 680.7814480819202 526.3274748354272 679.7285768813482 518.3516903894523 678.6757056807762 511.43084856555515 678.6976398070469 504.51000674165795 678.7195739333176 496.73865743923574 678.1935446610769 488.96730813681353 677.6675153888361 486.500761550892 677.2595313160627 484.03421496497043 676.8515472432892 481.82706635666887 675.6773249112623 479.61991774836736 674.5031025792355 477.9032561596057 672.6855833760828 476.18659457084397 670.8680641729303 475.1401549231201 668.5975428390007 474.0937152753963 666.327021505071 473.8270600760602 663.8412222233861 473.56040487672414 661.3554229417012 474.1014529955364 658.9146095532408 474.6425011143487 656.4737961647804 475.9346046704469 654.3335224756283 477.22670822654516 652.1932487864764 479.1345836365236 650.5776020168644 481.042459046502 648.9619552472524 483.36635125130573 648.0400940404481 485.69024345610944 647.1182328336438 488.1868403284475 646.9866763013474 490.68343720078553 646.8551197690509 493.0913443890866 647.5276419149213 495.49925157738767 648.2001640607917 497.56636056341085 649.6063516386278 499.63346954943404 651.0125392164638 501.14335347667895 653.0051640156685 502.6532374039238 654.9977888148732 503.44781102663717 657.368222492968 504.2423846493506 659.7386561710629 504.23845589948735 662.2387136962175 504.2345271496241 664.7387712213722 503.432507368332 667.106695910752 502.63048758703985 669.4746206001317 501.1143484571328 671.4624901136871 499.5982093272258 673.4503596272424 497.52669101582694 674.8500435021575 495.45517270442815 676.2497273770726 493.0451637255687 676.9146783421633 490.63515474670925 677.5796293072539 488.1389836766564 677.440226820945 485.6428126066035 677.3008243346361 483.3218292153169 676.371663874043 481.00084582403025 675.4425034134498 479.0980576852577 673.820868324071 477.1952695464852 672.1992332346922 475.9098990806435 670.0549091384557 474.6245286148018 667.9105850422194 474.09115444896946 665.4680832380479 473.5577802831371 663.0255814338766 473.8322468332738 660.5406325054247 474.1067133834105 658.0556835769728 475.1602839292649 655.7884623330121 476.21385447511926 653.5212410890516 477.9362199024247 651.7091261923133 479.6585853297301 649.8970112955749 481.8694135235874 648.7297316540992 484.0802417174447 647.5624520126235 486.54805838235507 647.1622221130048 489.0158750472654 646.7619922133861 489.0135571330099 646.7619885708677 489.0112392187544 646.7619849283494 492.30003200558144 646.8317856438689 495.58882479240856 646.9015863593885 502.06336551809704 647.7720726793344 508.5379062437855 648.6425589992804 517.3031007480504 649.5431212353157 526.0682952523152 650.4436834713509 534.5476879937139 651.3580010266074 543.0270807351126 652.2723185818639 549.5754429325414 652.4595304085675 556.12380512997 652.6467422352711 562.5351252345927 652.7610239701728 568.9464453392153 652.8753057050747 576.4721692527647 652.864386393192 583.9978931663142 652.8534670813095 591.4441729173454 652.2870598078532 598.8904526683767 651.720652534397 608.8511720399283 650.9850531333446 618.8118914114798 650.2494537322923 625.9883874902894 649.8016604346349 633.1648835690991 649.3538671369773 642.0022256892014 649.1525615765056 650.8395678093036 648.9512560160338 660.5273967084613 649.1678103813813 670.2152256076191 649.3843647467289 681.8965648241804 649.3962552636924 693.5779040407415 649.4081457806559 700.7763669488404 649.0858248676334 707.9748298569393 648.7635039546108 717.4475832095814 647.6950060349536 726.9203365622234 646.6265081152966 738.3361918541125 645.6749640717564 749.7520471460016 644.7234200282163 761.9087151464137 643.8096930126335 774.0653831468258 642.8959659970507 781.6220389448536 641.8860479312184 789.1786947428812 640.876129865386 795.8523259362087 640.6028185646643 802.5259571295361 640.3295072639426 809.6335127886364 639.7376663551012 816.7410684477366 639.1458254462598 826.934554390798 638.545314480687 837.1280403338593 637.9448035151142 844.1311419422623 636.6209324353304 851.1342435506652 635.2970613555464 860.4559475786546 636.9956224029529 869.7776516066438 638.6941834503594 870.0545883742711 632.3524564947255 870.3315251418985 626.0107295390916 870.545484330987 618.4857364239679 870.7594435200756 610.960743308844 870.6199643595381 604.6006698931858 870.4804851990007 598.2405964775274 870.8803671148194 591.9594667102726 871.2802490306382 585.6783369430177 871.8766174735019 576.3455715561213 872.4729859163657 567.012806169225 872.5534155571224 556.2722942043285 872.6338451978793 545.531782239432 873.3006953651718 538.5175589749019 873.9675455324642 531.503335710372 874.8473652132541 521.2289429403638 875.727184894044 510.9545501703558 875.6466460551019 494.38641976925953 875.5661072161597 477.8182893681633 875.8103748331478 463.8067568317932 876.0546424501359 449.79522429542317 877.182994848399 426.8343559045194 878.3113472466619 403.87348751361554 878.5149729418135 396.0075064595032 878.7185986369652 388.14152540539084 878.6679542509987 379.3033272371805 878.6173098650322 370.4651290689701 884.2567568281436 373.308223793112 889.896203791255 376.15131851725397 883.7949670590451 378.20357588427896 877.6937303268352 380.25583325130395 870.9042244015812 381.30125776736816 864.1147184763273 382.3466822834324 856.2258611668299 382.1679782264489 848.3370038573324 381.9892741694653 838.8853647805904 382.46404229052405 829.4337257038483 382.9388104115827 813.8839576675161 383.8343251362172 798.334189631184 384.72983986085165 787.6259331443192 384.54699838586924 776.9176766574544 384.36415691088683 763.9829787026696 384.4010383454289 751.0482807478847 384.43791977997097 735.6997214183438 384.4605762977562 720.3511620888028 384.4832328155414 704.987791174909 384.4478226830885 689.6244202610152 384.41241255063557 673.2604328885363 384.2040163565581 656.8964455160574 383.9956201624806 641.2424462698173 383.3437206243699 625.5884470235771 382.6918210862592 610.7253342689489 381.88724056406693 595.8622215143208 381.0826600418747 581.7294829153163 380.750766277987 567.5967443163117 380.4188725140993 555.4766463291685 380.97830787927546 543.3565483420253 381.5377432444516 528.4846035002618 382.7834108592586 513.6126586584982 384.0290784740656 513.6437719738667 392.9153698217991 513.6748852892354 401.8016611695327 514.4919190809276 411.4071830543827 515.3089528726199 421.0127049392328 515.1275325533715 427.63288846938633 514.946112234123 434.2530719995398 514.8979712527054 442.31463645697704 514.8498302712877 450.3762009144143 515.2672117125442 461.1617039564709 515.6845931538007 471.94720699852746 516.0597376750486 485.644696371 516.4348821962966 499.3421857434726 516.9523200550836 516.4818782305551 517.4697579138708 533.6215707176377 517.5294323891173 542.828276572469 517.5891068643638 552.0349824273003 517.6915018107798 561.4376573792699 517.7938967571959 570.8403323312396 517.9949790902484 580.7041110411819 518.196061423301 590.5678897511243 518.2079054140809 598.6873248360992 518.2197494048606 606.8067599210739 518.1184902933726 613.6511507086753 518.0172311818844 620.4955414962768 517.8868094391835 627.1690804100036 517.7563876964824 633.8426193237304 517.6398342866215 641.0572654724122 517.5232808767606 648.2719116210938 517.3770115001321 649.4765095972506 517.2307421235035 650.6811075734074 516.80043517666 651.8156942585922 516.3701282298165 652.9502809437771 515.6807931727265 653.9489141065386 514.9914581156363 654.9475472693001 514.083159134206 655.752186303298 513.1748601527758 656.556825337296 512.1003876264822 657.1207045840686 511.0259151001886 657.6845838308412 509.8477174227439 657.9749306020724 508.66951974529917 658.2652773733034 507.4560738210737 658.2652167010071 506.24262789684826 658.2651560287109 505.0644592599716 657.974691439164 503.88629062309496 657.6842268496171 502.8118744900984 657.1202401584114 501.73745835710173 656.5562534672057 500.82923984411616 655.751523607333 499.92102133113065 654.9467937474602 499.23178614080337 653.9480916561863 498.542550950476 652.9493895649124 498.1123574644524 651.8147598547059 497.6821639784287 650.6801301444993 497.53601506232894 649.4755175474279 497.38986614622917 648.2709049503563 497.38986612106237 648.2714082857251 Z" fill="hsl(0, 0%, 0%)"></path><path d="M 686.5811492388866 361.0804748535156 Q 686.5811492388866 361.0804748535156 686.5160689772124 357.07234687805175 686.4509887155383 353.06421890258787 686.2356164592188 346.5268912245572 686.0202442028993 339.9895635465264 685.2390463473032 333.10545364806103 684.4578484917071 326.22134374959563 684.1145339339705 318.57902980460346 683.7712193762341 310.9367158596113 683.653009242694 303.40883674579413 683.5347991091538 295.88095763197697 683.4886608843319 286.13581644624406 683.44252265951 276.39067526051116 683.4436169585153 268.93150146351456 683.4447112575208 261.4723276665179 683.3807155649715 252.3235547964595 683.3167198724221 243.17478192640107 683.1875392343136 236.04126800153443 683.0583585962052 228.9077540766678 682.8926557801436 221.01824799562502 682.7269529640821 213.12874191458226 683.1385785669324 210.61801815637006 683.5502041697828 208.10729439815788 684.7419836690976 205.8594440801905 685.9337631684125 203.61159376222315 687.7809169360144 201.86196740616668 689.6280707036161 200.1123410501102 691.9372012524358 199.04412499730017 694.2463318012555 197.9759089444902 696.7756725532802 197.70094569763754 699.305013305305 197.4259824507849 701.7897416161168 197.9730607344183 704.2744699269286 198.5201390180517 706.4544340864809 199.83197959146014 708.6343982460332 201.14382016486857 710.2813554313663 203.08307297372386 711.9283126166993 205.02232578257917 712.8698259757541 207.38595054588114 713.8113393348088 209.74957530918314 713.948832170357 212.29009989027776 714.0863250059053 214.83062447137237 713.4054017817705 217.28205527598567 712.7244785576357 219.73348608059896 711.296432115131 221.839157656373 709.8683856726263 223.94482923214707 707.8427328512497 225.48427720925503 705.8170800298731 227.023725186363 703.4059072147429 227.8357689552269 700.9947343996129 228.64781272409078 698.4504920209613 228.64743108775178 695.9062496423096 228.64704945141278 693.4953205487961 227.83428236729634 691.0843914552826 227.02151528317992 689.0592005594215 225.4814596795427 687.0340096635604 223.9414040759055 685.6065949867468 221.83530418098354 684.1791803099333 219.72920428606156 683.4989925456305 217.27756931480954 682.8188047813278 214.82593434355752 682.9570597680105 212.2854511246343 683.0953147546932 209.7449679057111 684.0375371587598 207.3816257027604 684.9797595628265 205.01828349980968 686.6272984498489 203.0795248653422 688.2748373368712 201.1407662308747 690.45519495047 199.82957970570175 692.6355525640687 198.51839318052876 695.1204448865415 197.97206033995553 697.6053372090142 197.42572749938233 700.1345953582504 197.70144953603477 702.6638535074865 197.97717157268718 704.9726634876015 199.0460803165442 707.2814734677166 200.1149890604012 709.1281022643261 201.8651694838165 710.9747310609355 203.61534990723175 712.1658361515715 205.8635576578709 713.3569412422075 208.11176540851008 713.7678136094594 210.62261254141202 714.1786859767112 213.133459674314 714.1786863305432 213.1311007943204 714.1786866843752 213.12874191432675 714.0129838902047 221.0182477928882 713.8472810960343 228.9077536714496 713.7181011073098 236.04126567238137 713.5889211185855 243.17477767331314 713.5249334993562 252.32352616637465 713.4609458801267 261.47227465943615 713.4620798475651 268.9313523879546 713.4632138150033 276.39043011647294 713.4176578375188 286.13360540762267 713.3721018600344 295.8767806987724 713.2614764668972 303.36349343559374 713.1508510737599 310.8502061724151 713.0381124440501 318.47955327106786 712.9253738143401 326.10890036972063 713.2994886338454 333.0492319581235 713.6736034533507 339.9895635465264 713.4582311970312 346.5268912245572 713.2428589407117 353.06421890258787 713.1777786790376 357.07234687805175 713.1126984173634 361.0804748535156 712.9199465567593 362.6678782221222 712.7271946961553 364.2552815907288 712.1601418615378 365.75042500096816 711.5930890269202 367.2455684112075 710.6846923556802 368.5615540578275 709.7762956844401 369.8775397044475 708.5793512337907 370.9378824398352 707.3824067831413 371.998225175223 705.9664810207926 372.74129782977775 704.5505552584439 373.48437048433254 702.9979418562305 373.86698564045855 701.4453284540172 374.2496007965845 699.8462653758249 374.24952084343056 698.2472022976328 374.24944089027656 696.694627164698 373.8666704747237 695.1420520317632 373.4839000591708 693.7262005837595 372.7406858157554 692.3103491357557 371.99747157234 691.1135107253644 370.9370091478091 689.9166723149732 369.8765467232782 689.0084072468395 368.56047024357116 688.1001421787058 367.24439376386414 687.5332388612644 365.7491936558171 686.9663355438229 364.2539935477701 686.7737424245192 362.6665709119145 686.5811493052155 361.0791482760589 686.5811492720511 361.0798115647873 Z" fill="hsl(0, 0%, 0%)"></path><path d="M 568.7984008789062 175.200568438936 Q 568.7984008789062 175.200568438936 576.0130470275878 175.3173923546068 583.2276931762696 175.43421627027757 594.6313344712257 175.4049319310733 606.0349757661819 175.37564759186904 614.8885414912882 175.23726450749152 623.7421072163945 175.098881423114 632.535880532694 174.990537468095 641.3296538489935 174.88219351307598 647.6576545891255 174.73333112918624 653.9856553292576 174.58446874529648 661.1924631121415 174.339885383227 668.3992708950253 174.09530202115752 674.9424131820707 173.90775726571462 681.4855554691161 173.72021251027175 689.8997959039981 174.9828662456958 698.3140363388801 176.24551998111986 707.2762097454995 176.4642721170032 716.2383831521188 176.68302425288655 724.9041380011727 177.4789038593812 733.5698928502266 178.27478346587588 740.2561366163208 178.919050954392 746.942380382415 179.5633184429081 753.3353791109503 178.9650710820286 759.7283778394856 178.36682372114913 766.7742999160798 176.670600154392 773.8202219926742 174.97437658763482 781.1831601349409 174.08591533615305 788.5460982772074 173.1974540846713 795.1381897232552 172.50141191104277 801.730281169303 171.80536973741422 808.4687314624493 171.65721229121473 815.2071817555958 171.50905484501524 821.2341026946888 171.08561437841064 827.2610236337819 170.66217391180604 829.9844892896849 170.45379105847184 832.707954945588 170.24540820513766 835.3553858217035 170.91756767180996 838.0028166978191 171.58972713848226 840.2970260825639 173.0720536515676 842.5912354673088 174.5543801646529 844.2920190324878 176.69167374693504 845.9928025976668 178.82896732921716 846.9220878550423 181.39745277844042 847.8513731124178 183.9659382276637 847.9118636502352 186.69669443928015 847.9723541880526 189.4274506508966 847.1577166310344 192.03456672870033 846.3430790740163 194.64168280650404 844.7386061894258 196.8521930089372 843.1341333048354 199.06270321137035 840.9078138272289 200.64516653672018 838.6814943496224 202.22762986207 836.0664245159966 203.0163619824426 833.4513546823707 203.8050941028152 830.7213329946176 203.71751455700252 827.9913113068645 203.62993501118981 825.4321717563475 202.67521340075717 822.8730322058306 201.72049179032453 820.7527173790361 199.99858771990628 818.6324025522417 198.27668364948804 817.172909971244 195.9678809297955 815.7134173902463 193.65907821010296 815.0675563135442 191.00510909535262 814.4216952368422 188.3511399806023 814.6570874896574 185.62987573768842 814.8924797424727 182.90861149477453 815.9844796937978 180.4049692082741 817.076479645123 177.9013269217737 818.9107546117943 175.87743859998074 820.7450295784657 173.85355027818778 823.1295304872713 172.52131756264862 825.5140313960768 171.18908484710948 828.1991003724174 170.68799285481637 830.884169348758 170.18690086252326 833.5886789620215 170.56941405734472 836.2931885752851 170.95192725216617 838.7339759550415 172.1779964016307 841.174763334798 173.40406555109524 843.0962773980816 175.34532089160314 845.0177914613653 177.286576232111 846.2188491785198 179.73976781706938 847.4199068956744 182.19295940202775 847.7747572066654 184.9012374249118 848.1296075176564 187.60951544779587 847.6010975012516 190.28932248469368 847.072587484847 192.96912952159147 845.7160522792772 195.3398890683395 844.3595170737073 197.7106486150875 842.3169862730861 199.52414152132144 840.2744554724649 201.3376344275554 837.7597825907931 202.40398750727695 835.2451097091213 203.47034058699853 835.2475703216403 203.4697417805384 835.2500309341594 203.46914297407827 832.3990003236274 204.12532079397806 829.5479697130953 204.78149861387783 822.3836409931815 204.8448314557021 815.2193122732677 204.90816429752638 808.8406843704864 204.8080885412839 802.4620564677051 204.70801278504143 795.4363363544421 204.69769504538317 788.410616241179 204.6873773057249 779.6319818747179 205.0912857921491 770.8533475082569 205.4951942785733 762.6954074673567 208.1989749436462 754.5374674264566 210.90275560871905 747.9853405778588 210.59477682076925 741.4332137292611 210.2867980328195 732.871449656788 209.54272329885387 724.3096855843147 208.79864856488825 716.6920975509709 207.5536148180219 709.0745095176269 206.30858107115554 702.4487630699257 206.04122629220944 695.8230166222245 205.77387151326332 688.56508094795 204.23480679641767 681.3071452736757 202.695742079572 674.8532080843505 202.50819732412913 668.3992708950253 202.32065256868623 661.1924631121415 202.07606920661675 653.9856553292576 201.83148584454727 647.6576545891255 201.6826234606575 641.3296538489935 201.53376107676777 632.535880532694 201.42541712174875 623.7421072163945 201.31707316672976 614.8885414912882 201.17869008235223 606.0349757661819 201.0403069979747 594.6313344712257 201.01102265877046 583.2276931762696 200.98173831956618 576.0130470275878 201.09856223523695 568.7984008789062 201.21538615090776 567.2419139586789 201.02638834744266 565.6854270384514 200.83739054397756 564.2194032111588 200.28138169479968 562.7533793838661 199.72537284562182 561.4630240232314 198.83466821116934 560.1726686625967 197.94396357671687 559.1329772828071 196.77033095219377 558.0932859030175 195.59669832767065 557.3646854159161 194.20834929635708 556.6360849288147 192.82000026504352 556.260921628945 191.2976257378707 555.8857583290752 189.77525121069792 555.8858367250525 188.20733166671363 555.8859151210297 186.63941212272937 556.2612306564761 185.11707511949837 556.6365461919225 183.59473811626737 557.3652855102839 182.20646195194414 558.0940248286452 180.8181857876209 559.1338335664985 179.64465713810375 560.1736423043519 178.4711284885866 561.4640867289982 177.5805528941235 562.7545311536444 176.68997729966043 564.2206105744917 176.13411505564505 565.686689995339 175.5782528116297 567.2431958075642 175.38941065780136 568.7997016197896 175.20056850397305 568.7990512493479 175.20056847145452 Z" fill="hsl(0, 0%, 0%)"></path></svg>