<svg width="800" height="600" xmlns="http://www.w3.org/2000/svg">

 <g>
  <title>Layer 1</title>
  <path d="m89,598.5c0,-2 0.87766,-3.06598 2,-5c1.80972,-3.11847 3.81464,-7.04865 6,-15c2.76682,-10.06702 5.62366,-20.12073 9,-30c4.50437,-13.17993 8.41328,-23.84442 12,-34c4.52953,-12.8251 7.14934,-26.2261 11,-39c2.46597,-8.18039 6.74416,-25.06171 10,-38c2.78244,-11.05704 5.49948,-25.96597 6,-37c0.45314,-9.98972 2.49873,-23.94672 3,-31c0.56711,-7.97989 2,-16 2,-24c0,-4 0,-10 0,-14c0,-6 1,-9 1,-12c0,-2 0,-4 0,-6l0,-1" id="svg_8" stroke-width="10" stroke="#000" fill="none"/>
  <path d="m591,600.5c0,-2 -0.14429,-5.93414 -1,-8c-1.21014,-2.92157 -1.56952,-7.133 -3,-11c-3.10321,-8.38867 -6.74316,-18.08069 -10,-28c-4.63739,-14.12427 -9.14716,-30.31177 -15,-45c-6.12738,-15.37711 -12.29651,-26.8898 -17,-40c-3.20361,-8.92953 -7.56812,-16.74811 -10,-23c-2.63922,-6.78488 -5,-12 -6,-16c-1,-4 -2.34515,-9.17697 -4,-14c-2.17706,-6.34512 -4,-13 -6,-19c-2,-6 -3.1604,-10.96329 -4,-15c-1.23862,-5.95532 -3.49622,-8.90778 -4,-13c-0.36655,-2.97751 -1.48627,-5.82376 -2,-8c-0.68927,-2.91974 -1.48627,-4.82376 -2,-7c-0.68927,-2.91974 -0.4588,-4.69345 -1,-6c-0.76538,-1.84775 0.22977,-4.02676 0,-5c-0.51373,-2.17624 -1,-3 -1,-5c0,-1 0,-2 0,-3c0,-1 0,-2 0,-3c0,-1 0,-2 0,-3c0,-1 0,-2 0,-3c0,-1 0,-2 0,-3c0,-1 -0.76538,-2.15225 0,-4c0.5412,-1.30655 1,-4 1,-6c0,-1 0,-3 0,-4c0,-2 0,-3 0,-4c0,-1 -2,-1 -4,-1c-1,0 -3,0 -5,0c-1,0 -3,-1 -5,-1c-2,0 -4.00974,-0.80292 -6,-1c-5.07422,-0.50244 -9,-2 -12,-2c-4,0 -7.85159,-0.99512 -18,-2c-5.97079,-0.59122 -10,0 -14,0c-5,0 -23,0 -32,0c-8,0 -16,0 -25,0c-30,0 -42,0 -49,0c-21,0 -47,0 -57,0c-8,0 -28.9424,2.99927 -55,4c-11.99117,0.46051 -18,1 -24,1c-5,0 -18,2 -24,2c-4,0 -8.00116,-0.08325 -11,0c-18.02081,0.50018 -23,3 -26,3c-2,0 -8,1 -10,1c-2,0 -3,1 -5,1c-4,0 -4,1 -5,1l-1,0" id="svg_9" stroke-width="10" stroke="#000" fill="none"/>
  <path d="m120,303.5c0,-2 4.21168,-5.71411 7,-8c3.28101,-2.68979 7.96539,-7.04669 12,-10c6.94141,-5.08105 16.69006,-11.46509 27,-18c6.80957,-4.31622 19.74179,-11.31506 27,-17c6.77229,-5.30434 41.49384,-28.66162 57,-40c11.64188,-8.51274 17.48535,-11.29013 28,-19c26.3299,-19.3064 30.46997,-26.39081 41,-35c12.60281,-10.30386 17.41415,-14.42938 30,-24c6.21695,-4.72754 19.74814,-13.29343 38,-27c5.65424,-4.24615 11.43283,-9.65108 17,-17c2.17719,-2.87399 3,-5 4,-6c1,-1 2.4588,-1.69344 3,-3c0.38269,-0.92388 0.29291,-1.29289 1,-2c0.70709,-0.70711 1.4588,0.69344 2,2c0.76538,1.84776 1.67963,5.02583 2,7c0.50653,3.12144 1.78986,5.07844 3,8c2.56711,6.19757 3.61066,10.15928 5,13c1.58411,3.23892 3.3476,5.8915 6,15c1.15277,3.95868 2.56952,8.133 4,12c1.55161,4.19435 6.60703,17.17572 9,22c2.59106,5.22363 4.23291,8.89178 6,13c4.62488,10.75223 6.56952,17.133 8,21c1.55161,4.19435 2.91232,8.03067 4,11c1.85226,5.05659 3,8 4,11c1,3 1.84723,6.04132 3,10c0.88412,3.03616 1.84723,6.04132 3,10c0.88412,3.03616 2.11588,5.96384 3,9c1.15277,3.95868 1.84723,7.04132 3,11c0.88412,3.03616 3.54861,8.76993 5,13c1.65482,4.82303 3.1604,9.96329 4,14c1.23862,5.95532 1.84723,9.04132 3,13c0.88412,3.03616 2,6 2,7l1,1l0,1" id="svg_10" stroke-width="10" stroke="#000" fill="none"/>
  <path d="m189,602.5c0,-1 0,-2 0,-3c0,-1 1,-2 1,-3c0,-2 0,-4 0,-5c0,-2 0,-5 0,-6c0,-1 0,-2 0,-3c0,-1 0,-3 0,-4c0,-1 0,-2 0,-6c0,-1 0,-2 0,-4c0,-2 0,-6 0,-7c0,-3 0,-4 0,-6c0,-5 1,-7 1,-11c0,-1 0,-3 0,-8c0,-2 0,-4 0,-6c0,-2 1,-8 1,-10c0,-2 0.4588,-3.69342 1,-5c1.14806,-2.77167 0.49345,-4.87857 1,-8c0.16019,-0.98709 0.49345,-1.87857 1,-5c0.16019,-0.98709 -0.76537,-2.15225 0,-4c0.5412,-1.30655 1,-3 2,-4c1,-1 1.4588,-1.69345 2,-3c0.38269,-0.92389 1,-2 1,-3c0,-1 0.83981,-1.01291 1,-2c0.50655,-3.12143 2.61731,-3.07611 3,-4c0.5412,-1.30655 1.61731,-1.07611 2,-2c0.5412,-1.30655 1.61731,-2.07611 2,-3c0.5412,-1.30655 1,-1 2,-2c1,-1 2.07613,-1.61731 3,-2c1.30656,-0.5412 2,-1 3,-2c1,-1 3.38687,-2.9176 6,-4c0.92387,-0.38269 2.01291,-0.83981 3,-1c3.12144,-0.50653 4.07613,-0.61731 5,-1c1.30656,-0.5412 3,-1 4,-1c1,0 2,-1 4,-1c1,0 2.69344,-0.4588 4,-1c1.84776,-0.76538 3,0 5,0c1,0 2.69344,-0.4588 4,-1c1.84776,-0.76538 4,0 6,0c1,0 3,0 5,0c1,0 2,0 3,0c2,0 5,0 7,0c2,0 3,0 4,0c1,0 2,1 3,1c1,0 2.07611,-0.38269 3,0c1.30655,0.5412 2.07611,0.61731 3,1c1.30655,0.5412 2.186,0.69254 4,2c1.14728,0.8269 2.02676,1.77023 3,2c2.17624,0.51373 2.85272,2.1731 4,3c1.814,1.30746 3,2 4,3c1,1 4,4 6,6c1,1 1,2 2,3c1,1 2,2 3,3c0,0 0.29291,0.29291 1,1c0.70709,0.70709 1.4588,0.69345 2,2c0.38269,0.92389 0.29291,1.29291 1,2c0.70709,0.70709 0.29291,1.29291 1,2c0.70709,0.70709 0.58578,2.58578 2,4c0.70709,0.70709 0.58578,1.58578 2,3c0.70709,0.70709 0,2 0,3c0,1 1,2 1,3c0,1 0,2 0,3c0,1 0.4588,1.69345 1,3c0.38269,0.92389 0.4588,1.69342 1,3c0.38269,0.92389 -0.38269,2.07611 0,3c0.5412,1.30658 1,2 1,3c0,1 0.4588,1.69342 1,3c0.38269,0.92389 2,5 2,7c0,1 1,2 1,3c0,1 0,2 0,2c1,1 1,2 1,4c0,1 -0.70709,2.29291 0,3c0.70709,0.70709 1,1 1,2c0,1 0,2 0,3c0,1 0,2 0,3c0,1 0,2 0,3c0,1 0,1 0,4c0,2 0,3 0,4c0,1 0,3 0,4c0,1 0,2 0,3c0,0 0,1 0,2c0,0 0,1 0,1c0,1 0,2 0,3c0,1 0,2 0,2c0,1 0,3 0,5c0,1 0,2 0,3c0,2 0,3 0,4c0,1 0,2 0,3c0,1 0,3 0,4c0,1 0.4588,1.69342 1,3c0.38269,0.92389 0,2 0,3l0,1" id="svg_11" stroke-width="10" stroke="#000" fill="none"/>
  <path d="m303,341.5c0,0 0,1 0,2c0,2 0.14804,4.22836 -1,7c-0.5412,1.30655 -1.87781,4.00751 -2,5c-0.50378,4.09222 -1.48627,5.82376 -2,8c-0.4595,1.9465 -1,3 -1,7c0,1 -1,2 -1,3c0,1 0,3 0,4c0,1 -0.49347,3.87857 -1,7c-0.32037,1.97418 0,3 0,4c0,1 0,3 0,4c0,1 0,2 0,3c0,1 0,2 0,3c0,1 0,2 0,3c0,1 -1,3 -1,5c0,1 0,2 0,4c0,3 -0.4588,4.69345 -1,6c-0.38269,0.92389 0,2 0,3c0,1 0,2 0,3c0,1 -0.70709,2.29291 0,3c1.41422,1.41422 4,0 6,0c3,0 4,0 6,0c2,0 5,0 6,0c2,0 4,0 7,0c2,0 6,0 7,0c2,0 3,0 4,0c3,0 5,0 7,0c2,0 3,0 4,0c2,0 3,0 5,0c2,0 3.01498,0.75565 5,1c4.09222,0.50378 6.08026,0.31073 9,1c2.17624,0.51373 5.82376,1.48627 8,2c1.9465,0.4595 4.01947,-0.39417 8,0c5.07422,0.50244 6,1 8,1c2,0 6,0 9,0c2,0 4,0 6,0c4,0 6,0 7,0c2,0 4,0 8,0c2,0 4,0 6,0c2,0 4,0 5,0c1,0 2,0 3,0c2,0 4,0 5,0c2,0 3,-1 4,-1c2,0 3,0 5,0c1,0 3,0 4,0c1,0 4.07611,-0.38269 5,0c1.30655,0.5412 1.69345,1.4588 3,2c0.92389,0.38269 1.82376,0.48627 4,1c0.97324,0.22977 3,1 4,1c1,0 2,1 3,1c0,0 1,0 2,0c1,0 2,0 3,0c1,0 2,0 2,-1c0,-1 0.61731,-2.07611 1,-3c0.5412,-1.30655 1.4588,-2.69345 2,-4c0.76538,-1.84775 0.5405,-4.0535 1,-6c0.51373,-2.17624 1.48627,-3.82376 2,-6c0.4595,-1.9465 0.48627,-3.82376 1,-6c0.22977,-0.97324 -0.16019,-3.01291 0,-4c0.50653,-3.12143 1,-5 1,-6c0,-3 0.48627,-4.82376 1,-7c0.4595,-1.9465 0,-4 0,-7c0,-3 1,-6 1,-8c0,-2 0,-5 0,-6c0,-2 0,-3 0,-5c0,-1 0,-2 0,-3c0,-2 0,-3 0,-4c0,-2 0,-3 0,-5c0,-1 -0.38269,-3.07611 0,-4c0.5412,-1.30655 1,-4 1,-6c0,-1 0.70709,-2.29291 0,-3c-0.70709,-0.70709 -2.15225,-0.23462 -4,-1c-1.30655,-0.5412 -3,-1 -5,-1c-2,0 -4,-1 -10,-1c-4,0 -7,0 -9,0c-3,0 -5,0 -8,0c-3,0 -6,0 -9,0c-3,0 -6,0 -9,0c-4,0 -7,0 -10,0c-3,0 -6.03873,-0.48056 -9,0c-3.12143,0.50653 -6,1 -9,1c-3,0 -6,0 -9,0c-2,0 -5.00388,-0.12427 -7,0c-8.04669,0.50098 -14.03873,0.51944 -17,1c-3.12143,0.50653 -11.05164,0.35928 -15,1c-3.12143,0.50653 -5,1 -8,1c-2,0 -5,0 -7,0c-2,0 -4.0535,-0.4595 -6,0c-2.17624,0.51373 -4,1 -6,1c-1,0 -2,0 -4,0c-2,0 -3,0 -4,0c-2,0 -3,0 -4,0c-1,0 -2,0 -3,0c-1,0 -2,0 -3,0c0,0 -1,0 -1,1l-1,0l-1,0l-1,0" id="svg_12" stroke-width="10" stroke="#000" fill="none"/>
 </g>
</svg>