<svg xmlns="http://www.w3.org/2000/svg" version="1.1" xmlns:xlink="http://www.w3.org/1999/xlink" viewBox="0 0 1422 800" style="overflow: hidden; display: block;" width="1422" height="800"><defs></defs><g id="two-0" transform="matrix(1 0 0 1 0 0)" opacity="1"></g><path d="M 680.2290463091437 700.3487419698791 Q 680.2290463091437 700.3487419698791 673.0118882986126 701.1323450436807 665.7947302880815 701.9159481174825 659.1971434568612 702.3379456751281 652.599556625641 702.7599432327738 636.064291135866 701.8387866289472 619.5290256460911 700.9176300251206 610.8994417950512 699.2697645503004 602.2698579440114 697.62189907548 595.1636668400565 696.1994844685115 588.0574757361017 694.777069861543 581.405710775132 692.9284611547042 574.7539458141623 691.0798524478654 560.4668754576373 686.1273800372107 546.1798051011124 681.1749076265561 539.4419872515728 678.7408778790384 532.7041694020332 676.3068481315208 521.3357224753327 671.4794300819956 509.9672755486322 666.6520120324703 500.0277544522572 661.7996392292099 490.0882333558822 656.9472664259495 483.62789051444133 652.2505892247332 477.1675476730004 647.5539120235169 468.71728993691465 641.5635132302617 460.2670322008289 635.5731144370066 454.0342444157926 631.1801117992784 447.8014566307563 626.7871091615503 440.42369760201825 619.8743923091586 433.04593857328024 612.9616754567669 427.62134392957125 607.8184875610882 422.1967492858623 602.6752996654095 416.9730222157185 597.0779891636978 411.74929514557476 591.4806786619861 405.20980472688484 582.2265198744215 398.670314308195 572.9723610868568 393.02492410823515 563.8801221997426 387.37953390827533 554.7878833126283 383.3866860836514 547.3562278389327 379.39383825902746 539.9245723652369 376.2629026308289 533.974852125568 373.1319670026303 528.025131885899 370.21262426472356 522.4075625922892 367.2932815268169 516.7899932986793 363.63340591438117 507.88989631649207 359.97353030194546 498.98979933430485 357.6484052149307 491.4126925673231 355.32328012791595 483.83558580034133 353.64535472512847 476.22849741601016 351.967429322341 468.621409031679 350.11743311407173 460.6258085877006 348.26743690580247 452.6302081437222 346.918259667087 444.18209353782834 345.5690824283715 435.73397893193453 344.8743893615707 429.08255500951964 344.17969629477 422.4311310871048 343.74090240553267 416.15047927153404 343.30210851629533 409.8698274559633 343.2767649679018 401.804350122246 343.25142141950823 393.7388727885286 343.66131138891274 386.56892016139153 344.07120135831724 379.39896753425444 345.34593854157106 371.46832049531423 346.62067572482493 363.537673456374 348.1132228012308 356.2603006726453 349.6057698776367 348.9829278889166 350.97112375321365 340.9062071600911 352.33647762879065 332.82948643126565 355.8108837243899 324.14659900387255 359.2852898199891 315.4637115764794 361.5916236868667 308.81683008111725 363.8979575537442 302.16994858575504 366.66866911070116 295.3473433218172 369.4393806676581 288.52473805787946 371.9639119955837 282.61656353820786 374.48844332350933 276.70838901853625 377.8959645922931 269.1448287244093 381.303485861077 261.5812684302824 384.8760539182073 255.7778483178202 388.4486219753376 249.974428205358 393.52074080519526 242.69495856596723 398.59285963505295 235.41548892657647 402.9175832354838 230.110884428926 407.2423068359146 224.80627993127555 413.14551494344323 217.56148975442002 419.04872305097194 210.3166995775645 423.2201071017255 205.4746502549566 427.3914911524791 200.63260093234874 432.7671101292302 195.52579165707678 438.1427291059813 190.41898238180482 445.4930321945146 183.43102763545846 452.8433352830479 176.4430728891121 458.48638379398676 171.4908524567287 464.1294323049257 166.53863202434533 469.973689109304 161.3753144284451 475.8179459136823 156.21199683254486 480.4813501857925 151.92066136055945 485.1447544579027 147.62932588857404 490.9296944147676 143.4264715228515 496.71463437163254 139.22361715712896 501.899981613962 135.4408691685158 507.0853288562914 131.65812117990262 514.3089076643682 126.526362486741 521.5324864724452 121.39460379357935 529.8370826132937 116.69896319497455 538.141678754142 112.00332259636976 544.390077569064 108.30492661355277 550.6384763839859 104.60653063073579 558.6985337941675 100.24425260952532 566.758591204349 95.88197458831485 575.2152023695606 92.2287840878804 583.6718135347722 88.57559358744594 589.9999654377004 86.26575613183823 596.3281173406286 83.95591867623051 603.1744737945303 82.53746111284175 610.0208302484318 81.119003549453 616.8200692776599 79.13452671062441 623.6193083068879 77.15004987179584 631.0526140445987 75.50316868200423 638.4859197823096 73.8562874922126 647.6296390288867 72.75887521068212 656.7733582754639 71.66146292915164 663.0948940199146 70.90309436749381 669.4164297643653 70.14472580583598 676.6016202008893 69.59211658111337 683.7868106374133 69.03950735639079 691.613078719605 68.16375146097315 699.4393468017968 67.28799556555549 706.1793631908873 67.10279061828435 712.9193795799779 66.9175856710132 720.0829159477119 66.91231286905204 727.2464523154457 66.90704006709089 733.7860089529797 66.89709758916604 740.3255655905139 66.88715511124117 747.557794652206 66.81599977227845 754.7900237138981 66.74484443331572 761.9377259941408 67.34269170561288 769.0854282743835 67.94053897791005 777.8552412425654 69.16561793145934 786.6250542107472 70.39069688500862 793.7989833561492 71.10288204311956 800.972912501551 71.8150672012305 807.291714796259 72.50879373697504 813.610517090967 73.20252027271955 821.9692270162377 75.04602126489479 830.3279369415083 76.88952225707004 836.9460335721781 78.58312676098055 843.564130202848 80.27673126489105 850.4892465099826 81.64996412525413 857.4143628171174 83.0231969856172 864.6838646717824 86.18432156611942 871.9533665264476 89.34544614662164 878.8149963649574 92.47453626201576 885.6766262034673 95.6036263774099 892.9699594383761 99.13164275050066 900.2632926732849 102.65965912359142 907.8618413997626 106.83859884473608 915.4603901262404 111.01753856588074 922.5021371359833 115.3577752732543 929.5438841457261 119.69801198062787 936.9157801777501 124.07137448242355 944.2876762097741 128.44473698421925 949.8422830107561 132.04449704482562 955.3968898117381 135.644257105432 962.6127971561104 140.80575802022327 969.8287045004828 145.96725893501457 975.1406328116866 150.4220505872101 980.4525611228905 154.8768422394056 986.7995227477218 160.03799934349524 993.146484372553 165.19915644758487 999.9105863423372 170.27333504446187 1006.6746883121215 175.34751364133885 1011.7668058449351 179.98883695342488 1016.8589233777487 184.63016026551088 1022.5125045928248 190.2706695969104 1028.166085807901 195.91117892830997 1033.8741141525961 201.367538735874 1039.582142497291 206.82389854343802 1043.7757901460905 211.6353076628865 1047.96943779489 216.446716782335 1051.7262542352137 221.92767072556325 1055.4830706755376 227.40862466879148 1057.7632115171773 234.63777894738206 1060.043352358817 241.86693322597262 1062.6380360137332 250.70197387773447 1065.2327196686495 259.53701452949633 1066.726603847676 265.8327516105482 1068.2204880267022 272.12848869160007 1069.685751104932 279.3751769846482 1071.151014183162 286.6218652776964 1071.8143123312602 292.95331382104837 1072.4776104793582 299.2847623644004 1072.5490922121326 306.14417750774913 1072.6205739449072 313.00359265109785 1073.2961631972128 319.92211503537476 1073.9717524495184 326.84063741965167 1074.697327929 333.7916843021086 1075.4229034084815 340.74273118456557 1075.5525686371557 348.2861393247705 1075.6822338658296 355.82954746497535 1074.5265428106045 363.89344456362016 1073.3708517553796 371.957341662265 1072.5210077162546 378.77603823143954 1071.6711636771297 385.59473480061416 1070.3236728922939 394.3345015390311 1068.9761821074578 403.0742682774481 1067.0823753313862 411.9886232726989 1065.1885685553145 420.9029782679496 1062.9611657193184 427.7657617882845 1060.7337628833222 434.6285453086195 1059.3166660924499 441.84350902421403 1057.8995693015777 449.05847273980856 1055.1567909672779 456.18027651474097 1052.414012632978 463.3020802896734 1049.9180955886573 469.6239214062067 1047.4221785443362 475.94576252274004 1043.9387303494127 482.6758108871908 1040.4552821544894 489.4058592516415 1036.6207049838845 496.43423627304685 1032.7861278132793 503.4626132944521 1029.887264325539 509.43881328651906 1026.988400837799 515.415013278586 1023.452816869935 521.2173745303793 1019.917232902071 527.0197357821726 1014.4052654356113 534.4080875243756 1008.8932979691517 541.7964392665787 1004.5333875037778 547.8865058718798 1000.1734770384039 553.976572477181 995.3141451098202 561.187141299856 990.4548131812364 568.397710122531 985.8616975927969 573.6952236693239 981.2685820043574 578.9927372161169 975.2259455592398 584.747283619309 969.1833091141222 590.501830022501 963.7255790876798 595.2366385659916 958.2678490612374 599.9714471094821 950.0842776305511 606.31932582281 941.9007061998649 612.6672045361378 935.9368559404849 616.9615284298507 929.9730056811048 621.2558523235637 923.0333889637611 626.0158432483206 916.0937722464173 630.7758341730774 909.5496555625484 635.4501410058141 903.0055388786794 640.1244478385507 896.2410908320586 644.1454848184101 889.4766427854378 648.1665217982693 883.7458309918081 650.7116876235211 878.0150191981785 653.256853448773 870.6985651901407 657.3168742562482 863.3821111821028 661.3768950637234 857.7141830668975 664.2907300403988 852.046254951692 667.2045650170742 844.215840481769 670.5009475889317 836.385426011846 673.7973301607891 828.4541324468837 676.9325567228898 820.5228388819215 680.0677832849906 813.0302025425244 682.4472258551114 805.5375662031274 684.8266684252322 798.5257035452682 686.9712434823704 791.5138408874092 689.1158185395085 784.9376789857117 690.9926396135436 778.3615170840144 692.8694606875788 770.8071197783916 694.5475443988025 763.2527224727688 696.2256281100262 755.0582302784894 698.3076967768799 746.8637380842101 700.3897654437336 739.1908877013002 702.4424584347785 731.5180373183904 704.4951514258233 724.55418019643 705.8774723861546 717.5903230744698 707.2597933464859 711.4273326673413 709.0349235467072 705.2643422602127 710.8100537469284 697.6251013083468 712.4033267125777 689.9858603564809 713.9965996782271 682.4025577203578 715.2144927496763 674.8192550842347 716.4323858211255 668.6327955109844 717.3832854179904 662.446335937734 718.3341850148552 654.7612142827902 718.926156163805 647.0760926278463 719.5181273127549 641.1138913513561 717.3570695354936 635.1516900748659 715.1960117582322 631.3703426800201 712.7328536419109 627.5889952851744 710.2696955255894 625.8480914388855 708.2629944859017 624.1071875925966 706.2562934462139 623.0981826772111 703.7987531422849 622.0891777618256 701.3412128383559 621.9177148583358 698.6901383887348 621.7462519548459 696.0390639391136 622.430283274509 693.4720235384912 623.114314594172 690.9049831378688 624.5822218772526 688.6907465938233 626.050129160333 686.4765100497777 628.1482221268025 684.8469085129723 630.246315093272 683.2173069761668 632.7549228556984 682.3429601576779 635.2635306181247 681.4686133391891 637.9200012815738 681.4410655817179 640.576471945023 681.4135178242467 643.1026723297915 682.2356533852721 645.6288727145601 683.0577889462976 647.7603089735107 684.6435300155576 649.8917452324613 686.2292710848177 651.4052554266373 688.4125901537659 652.9187656208132 690.5959092227141 653.6558848333566 693.1482122084913 654.3930040458998 695.7005151942685 654.2765557006765 698.3545753005212 654.1601073554532 701.0086354067739 653.2022836249475 703.4865718397737 652.2444598944419 705.9645082727735 650.5455451760788 708.0068804338737 648.8466304577156 710.0492525949737 646.5845015709775 711.442223579773 644.3223726842394 712.8351945645722 641.733875120712 713.4329199432536 639.1453775571846 714.0306453219351 636.501527695066 713.7705430895666 633.8576778329474 713.510440857198 631.4352874507101 712.4197437861687 629.0128970684729 711.3290467151394 627.0655910785861 709.5219510767022 625.1182850886994 707.714855438265 623.8499469423432 705.3805646227913 622.5816087959869 703.0462738073176 622.1250338318933 700.4291886793803 621.6684588677998 697.812103551443 622.0714506052337 695.1862336147806 622.4744423426677 692.5603636781182 623.6948074403402 690.2006382082616 624.9151725380128 687.8409127384049 626.8251384480525 685.994395614955 628.7351043580923 684.1478784915051 631.1346971455359 683.0079005447205 633.5342899329797 681.8679225979358 636.1722715995511 681.5538398197696 638.8102532661226 681.2397570416033 641.4104264349721 681.7844539818393 644.0105996038216 682.3291509220754 646.3007254577916 683.675597667285 648.5908513117616 685.0220444124947 648.5889577379139 685.0204692732809 648.5870641640663 685.0188941340671 646.9848784798676 686.639588389339 645.382692795669 688.2602826446108 652.7046384854077 687.1805495992717 660.0265841751465 686.1008165539324 668.9476017088518 684.8305847645684 677.8686192425571 683.5603529752042 685.8064713779097 682.2610230061741 693.7443235132624 680.9616930371442 701.9235997709179 678.7047602755833 710.1028760285735 676.4478275140224 716.7177542001696 675.0423027169626 723.3326323717657 673.6367779199028 731.3454284940851 671.5132925831359 739.3582246164046 669.3898072463691 747.2880685373675 667.3703936886338 755.2179124583303 665.3509801308986 762.1676132090859 663.9009681045773 769.1173139598413 662.4509560782558 775.8708649242003 660.3956106080541 782.6244158885594 658.3402651378525 789.5287938791716 656.2791068243898 796.433171869784 654.2179485109272 804.8978158014338 651.5983346478016 813.3624597330835 648.978720784676 822.3539969304352 645.406607762692 831.345534127787 641.834494740708 838.9762967333422 637.7902269146971 846.6070593388974 633.7459590886862 852.9801040626586 630.3881049794563 859.3531487864198 627.0302508702265 865.9170178306708 623.9904290068614 872.480886874922 620.9506071434962 878.5521492487385 617.1297684942974 884.623411622555 613.3089298450985 890.5877029026356 609.0224980036187 896.5519941827162 604.7360661621389 902.4329068739568 600.7043824935693 908.3138195651974 596.6726988249997 913.5140454809441 592.9732647440687 918.7142713966907 589.2738306631378 925.0966834224537 584.375993494157 931.4790954482168 579.4781563251761 937.8201342105795 574.488795066195 944.161172972942 569.499433807214 950.7087840857466 563.3820765702752 957.2563951985511 557.2647193333364 961.9938026830719 551.6693039564095 966.7312101675925 546.0738885794826 970.7177850867316 539.924587348702 974.7043600058707 533.7752861179213 979.6259165849912 526.9314257046437 984.5474731641116 520.0875652913663 988.8990319907929 514.0088983618925 993.2505908174742 507.9302314324186 996.4834644358614 502.28346284363386 999.7163380542487 496.6366942548491 1004.0723611306009 488.67793652223014 1008.4283842069531 480.7191787896112 1011.5678184781639 474.7624504419589 1014.7072527493748 468.80572209430653 1017.3571481945252 463.1209054160093 1020.0070436396755 457.43608873771205 1023.606231149206 448.45271924451527 1027.2054186587366 439.4693497513185 1029.9723194688504 428.09520008636014 1032.739220278964 416.7210504214018 1034.8122711466458 408.9554625549433 1036.8853220143274 401.1898746884848 1037.9295643459366 393.1044503924161 1038.9738066775458 385.0190260963474 1040.0475084638042 378.7807704831894 1041.1212102500624 372.5425148700313 1042.2490448339615 364.198654947338 1043.3768794178607 355.8547950246448 1043.394803365631 348.9170461707703 1043.4127273134013 341.9792973168957 1042.749104831661 335.05152449747015 1042.085482349921 328.12375167804464 1041.431611017022 320.69495698764007 1040.7777396841232 313.2661622972355 1040.6622994424729 306.3060201373779 1040.5468592008228 299.3458779775203 1039.2613242906218 290.717212665019 1037.975789380421 282.08854735251776 1036.4482387748833 274.8162132287399 1034.9206881693456 267.5438791049621 1032.595677888826 259.51305373397804 1030.2706676083064 251.48222836299396 1028.7340721322316 245.3651825979939 1027.1974766561566 239.24813683299385 1023.0020527309584 234.20767114749526 1018.8066288057604 229.16720546199667 1013.2814706430186 223.65385177660738 1007.7563124802768 218.14049809121812 1002.4588428271593 212.94991262018368 997.1613731740418 207.75932714914927 989.7200100675121 201.3748042702208 982.2786469609824 194.9902813912923 973.6758698072122 188.16697013860426 965.0730926534418 181.3436588859162 958.9433500401556 176.13476607515884 952.8136074268695 170.9258732644015 945.8431962481682 165.79486962274302 938.8727850694669 160.6638659810845 933.5008115789703 157.09286233765914 928.1288380884738 153.52185869423377 920.4978277925806 149.15106651753268 912.8668174966873 144.7802743408316 907.0799916387848 141.20733394783846 901.2931657808823 137.63439355484533 894.7867334933899 134.06270768573296 888.2803012058976 130.49102181662062 882.4455326442882 128.1192692893394 876.6107640826788 125.74751676205818 868.0728493395908 121.70587183004265 859.5349345965028 117.66422689802712 850.7840818425714 114.32363487533112 842.0332290886398 110.98304285263512 832.7351703892074 108.88627142453572 823.437111689775 106.78949999643632 813.7838222320813 104.88356051979989 804.1305327743878 102.97762104316344 797.9118488963034 102.28245939323385 791.6931650182188 101.58729774330426 781.4434735236921 100.61282586239086 771.1937820291655 99.63835398147747 762.983939598803 98.70077966798871 754.7740971684404 97.76320535449996 747.5578101115374 97.69402744293195 740.3415230546343 97.62484953136395 733.8241930104539 97.62462318594788 727.3068629662736 97.6243968405318 720.3219237706392 97.67291577564349 713.3369845750049 97.72143471075518 704.8170547765715 98.01541662514734 696.2971249781382 98.3093985395395 688.7838823332027 99.39260623059563 681.270639688267 100.47581392165176 674.2722781730879 100.69188068669257 667.2739166579088 100.90794745173339 659.3095799640141 101.71974457605799 651.3452432701193 102.53154170038258 644.787818538714 103.9978233403559 638.2303938073087 105.4641049803292 631.6943247229297 107.15174134722776 625.1582556385507 108.83937771412631 617.8215221678212 110.53619154298889 610.4847886970916 112.23300537185148 603.6004916066249 114.55419005592978 596.7161945161582 116.87537474000807 587.515712835758 121.28289567332772 578.3152311553578 125.69041660664737 569.3585626679921 130.6397369915435 560.4018941806266 135.58905737643957 552.1904675920123 140.37921209788504 543.979041003398 145.16936681933052 537.5343528137047 149.62796208521078 531.0896646240113 154.08655735109105 522.9385779101676 160.05826648737474 514.7874911963238 166.0299756236584 509.7975518565704 169.90714882850577 504.807612516817 173.78432203335313 499.6682824683462 178.06114840195318 494.52895241987534 182.33797477055322 489.19564230263575 187.1065729820354 483.8623321853961 191.87517119351756 478.6989830516028 196.38329597776482 473.53563391780955 200.89142076201205 468.69272862354114 205.38053794746304 463.8498233292727 209.86965513291403 458.0815928057126 215.0561803497287 452.3133622821526 220.24270556654335 446.7153084212564 226.64064977233068 441.1172545603602 233.03859397811797 436.03172126539704 239.16522235548555 430.94618797043387 245.29185073285313 426.64132367588263 250.3717465566507 422.33645938133145 255.45164238044822 417.8005455054802 261.98807401070644 413.264631629629 268.5245056409646 409.7745697586235 274.80992084109323 406.284507887618 281.0953360412219 403.10924296458256 287.8301526492314 399.9339780415471 294.56496925724093 397.09302187196215 301.1485833529319 394.25206570237714 307.73219744862286 391.7680980797995 314.6346468460308 389.2841304572218 321.5370962434388 386.8274351336654 327.2881320641192 384.37073981010894 333.03916788479967 382.3793300715687 341.2557255329154 380.3879203330284 349.4722831810311 378.39978549325775 358.46971805978757 376.41165065348713 367.467152938544 375.26045653171957 375.2687636959302 374.10926240995207 383.0703744533164 373.73343355638144 391.4853541123864 373.35760470281076 399.9003337714564 373.59826306738444 408.8790420859011 373.83892143195806 417.85775040034576 374.54678099122214 424.9496100716284 375.2546405504863 432.041469742911 376.49319303193965 441.20056086823587 377.7317455133931 450.35965199356076 379.2095532949793 456.91664802792184 380.6873610765655 463.473644062283 382.7546925265857 472.74914760060676 384.8220239766059 482.0246511389306 387.2362101585109 488.6630473937695 389.6503963404159 495.3014436486084 392.6746835242568 502.10937560595164 395.69897070809765 508.91730756329486 398.4729408399577 514.6373987359359 401.2469109718177 520.357489908577 404.3997174233224 526.6499211452667 407.552523874827 532.9423523819565 410.7980088357349 539.5480890745171 414.0434937966428 546.1538257670777 418.08079254962246 552.6733895003698 422.1180913026021 559.1929532336619 426.84519108397774 566.097960024095 431.5722908653534 573.002966814528 436.243909334574 578.4253223317914 440.9155278037946 583.8476778490549 446.00505205046943 589.1189632026229 451.09457629714433 594.390248556191 457.6568094119941 600.8657699007936 464.21904252684396 607.3412912453963 470.03392690506047 611.9413089294799 475.848811283277 616.5413266135636 483.50445158265603 622.3937318649542 491.1600918820351 628.2461371163449 496.5681681381411 632.1510908417723 501.9762443942472 636.0560445671997 511.11030222769114 640.9255031127901 520.244360061135 645.7949616583805 530.3721522912631 650.5211687404957 540.4999445213911 655.2473758226108 546.787744667155 657.635032442502 553.0755448129191 660.0226890623932 562.0405424187442 662.7425074450666 571.0055400245692 665.4623258277402 581.7857651949174 669.2117856385071 592.5659903652656 672.9612454492741 599.4766162023552 674.4315253563327 606.3872420394448 675.9018052633913 613.7627246466527 677.2879158222652 621.1382072538607 678.6740263811389 630.9220860905223 678.9922931606919 640.7059649271837 679.310559940245 651.9612966408401 679.0023428376508 663.2166283544967 678.6941257350566 670.428727546114 677.8744741091512 677.6408267377313 677.0548224832459 679.0533236163371 677.0691977409019 680.4658204949429 677.0835729985581 681.8338298493726 677.4355736893197 683.2018392038023 677.7875743800812 684.4458522661007 678.4567422072623 685.6898653283993 679.1259100344436 686.7375800009361 680.073352932488 687.785294673473 681.0207958305324 688.5758177302537 682.1914483736903 689.3663407870343 683.362100916848 689.8537269908561 684.6879247243081 690.341113194678 686.0137485317682 690.4970356364751 687.4176866615474 690.6529580782721 688.8216247913265 690.4683545384014 690.2220802933582 690.2837509985305 691.6225357953899 689.7693506434026 692.938114130096 689.2549502882747 694.253692464802 688.4406500906987 695.4079321575572 687.6263498931228 696.5621718503123 686.5594770188416 697.4879884359419 685.4926041445605 698.4138050215715 684.235165295154 699.0573899966193 682.9777264457477 699.7009749716673 681.6028040262242 700.024923147145 680.2278816067007 700.3488713226227 680.2284639579223 700.348806646251 Z" fill="hsl(0, 0%, 0%)"></path><path d="M 983.8150867133013 162.74278042400834 Q 983.8150867133013 162.74278042400834 986.2387432500901 165.94317901290503 988.662399786879 169.14357760180175 991.4283609120672 174.2722395807806 994.1943220372555 179.40090155975946 997.0620698390663 183.2889041637049 999.9298176408772 187.1769067676503 1003.2645051479822 192.96076782325702 1006.599192655087 198.74462887886375 1008.9732695829442 204.4019108479294 1011.3473465108015 210.05919281699508 1012.4313018799141 215.24656132188377 1013.5152572490268 220.43392982677247 1014.3863415243986 226.765263659305 1015.2574257997705 233.09659749183749 1015.9988494152634 239.46224831523398 1016.7402730307563 245.82789913863044 1017.4604183482575 251.90864573632354 1018.1805636657588 257.98939233401666 1018.4255340568666 262.8395862182689 1018.6705044479743 267.6897801025212 1018.5906454529365 273.85655103389126 1018.5107864578988 280.0233219652614 1018.4562973795926 285.8608657206519 1018.4018083012865 291.6984094760424 1018.9204737445705 297.1044957611623 1019.4391391878544 302.51058204628225 1019.5269062797215 308.2701459893708 1019.6146733715887 314.0297099324594 1019.6854186375654 319.6700835890467 1019.756163903542 325.31045724563404 1019.8565457568823 330.17859885593293 1019.9569276102227 335.04674046623177 1017.6736790950952 346.0371617147075 1015.3904305799676 357.02758296318325 1014.0637926055467 365.04914140244284 1012.7371546311257 373.0706998417024 1011.8307824140152 378.93193721745513 1010.9244101969048 384.79317459320794 1009.1052243109054 391.98002900606656 1007.2860384249062 399.1668834189252 1006.316139628919 403.9010577827586 1005.3462408329317 408.63523214659193 1002.8387540939393 416.98940882327736 1000.3312673549468 425.3435854999627 994.4108736376736 435.9488317116038 988.4904799204005 446.5540779232449 986.2260853119899 451.50755757252307 983.9616907035793 456.4610372218013 980.5448224494285 463.47061429860605 977.1279541952778 470.48019137541087 973.9505624597685 476.27143862302 970.7731707242593 482.0626858706291 967.8926703466095 486.8335422978986 965.0121699689598 491.60439872516804 960.4878199943546 496.340776905521 955.9634700197494 501.077155085874 950.9477222359137 506.9358973807733 945.9319744520782 512.7946396756727 941.5905039611656 518.2374683590468 937.249033470253 523.680297042421 933.5919247656954 527.8580523377818 929.9348160611377 532.0358076331427 926.0275033381236 535.8025427937387 922.1201906151094 539.5692779543348 916.1650615643099 544.3352799700577 910.2099325135104 549.1012819857807 905.8101712173361 552.4882669304045 901.410409921162 555.8752518750282 896.0039383448731 559.8435115325738 890.5974667685841 563.8117711901192 884.6155586845036 568.0069820030054 878.633650600423 572.2021928158916 868.9577161885288 577.6144412078403 859.2817817766347 583.0266895997889 852.7796613279465 586.5708043728916 846.2775408792583 590.1149191459943 840.3842591269399 593.7833600298287 834.4909773746217 597.4518009136631 829.4765069124091 599.9140427781615 824.4620364501967 602.37628464266 816.6119143465467 604.3387966210107 808.7617922428967 606.3013085993613 803.1615541965705 608.1282503687828 797.5613161502441 609.9551921382044 792.8108036879805 611.2768768550459 788.0602912257169 612.5985615718872 782.9029518209327 613.4447034900036 777.7456124161484 614.29084540812 772.7941256913532 614.6333910588562 767.8426389665581 614.9759367095925 762.919674496271 615.045864397301 757.996710025984 615.1157920850095 751.9744776153512 616.0663682626135 745.9522452047185 617.0169444402176 740.3140478693304 618.2633190317745 734.6758505339424 619.5096936233314 729.3960675195258 620.3370173790806 724.1162845051092 621.1643411348299 718.9482126744048 621.7336726853971 713.7801408437003 622.3030042359644 708.6743329978608 622.3381110536127 703.5685251520213 622.373217871261 697.5428635510295 621.9063815510617 691.5172019500378 621.4395452308624 684.8278451675599 621.2172067717264 678.1384883850818 620.9948683125904 671.4969769198057 619.8044951073066 664.8554654545295 618.6141219020227 659.0889915802985 617.1164571964473 653.3225177060675 615.6187924908719 648.1898771248134 614.2368391739346 643.0572365435593 612.8548858569975 636.4180314290206 610.9806671327354 629.7788263144821 609.1064484084734 625.3511813128018 607.3216603879225 620.9235363111217 605.5368723673718 615.0480030828694 603.3400881717214 609.172469854617 601.1433039760709 603.2223738507273 597.9367145257054 597.2722778468377 594.7301250753399 592.1851227620782 592.5106957812266 587.0979676773187 590.2912664871131 581.643106394057 586.3962657388784 576.1882451107953 582.5012649906437 571.5767860491046 579.6685107889696 566.9653269874141 576.8357565872956 562.0491886217719 573.432879323361 557.1330502561296 570.0300020594265 553.5238489840302 566.5488498490153 549.9146477119308 563.067697638604 545.5895363932217 557.4185163184031 541.2644250745126 551.7693349982022 538.31563669498 548.0339386874268 535.3668483154473 544.2985423766514 531.4672047880781 538.0834888188422 527.567561260709 531.868435261033 523.7930765151357 525.1119428812171 520.0185917695622 518.3554505014014 517.7504600718656 514.0622527964772 515.482328374169 509.769055091553 513.0605484219784 503.33512159777615 510.6387684697877 496.9011881039993 509.34263181547993 490.21330499068523 508.0464951611722 483.5254218773712 507.2367751472683 478.43164832247226 506.4270551333645 473.3378747675734 505.5717857136113 466.88410514337284 504.7165162938581 460.4303355191723 504.5151306543151 454.4924373700703 504.3137450147721 448.5545392209683 504.28510293083787 443.0938408341915 504.2564608469036 437.63314244741474 504.91047162321877 430.4342098785405 505.5644823995339 423.2352773096663 506.1127106794215 417.2972449356041 506.66093895930914 411.3592125615419 507.4746511615947 405.7994362405318 508.2883633638802 400.2396599195218 509.6055126746816 393.4108455770564 510.92266198548305 386.5820312345911 512.2329785333297 381.3949812573601 513.5432950811763 376.20793128012906 515.3049194190219 371.67524842010266 517.0665437568673 367.1425655600763 518.9629770622482 359.8175258284847 520.8594103676293 352.4924860968931 522.8637708624799 347.38169559661617 524.8681313573305 342.2709050963392 526.4716429520007 337.63212683828743 528.0751545466709 332.99334858023565 530.7524944223444 326.90394470169235 533.4298342980178 320.814540823149 537.4475813706578 313.5541063503094 541.4653284432977 306.29367187746976 545.5308726282063 298.87624862898963 549.596416813115 291.45882538050955 553.388081580049 284.727872116572 557.179746346983 277.9969188526344 560.1064532211565 272.6665881406973 563.03316009533 267.3362574287601 565.654966489119 263.1742178092658 568.276772882908 259.01217818977153 572.1867140158646 253.4319131926402 576.0966551488212 247.8516481955089 580.5289884036299 242.46026856174393 584.9613216584387 237.06888892797897 589.0847007963147 232.90626673918592 593.2080799341907 228.74364455039284 596.9404179553402 224.64939377473306 600.6727559764897 220.55514299907327 604.2959781811925 216.8034707479908 607.9192003858952 213.05179849690828 614.0718662916024 208.11621194305292 620.2245321973096 203.18062538919756 624.4888614633714 199.93765770984947 628.7531907294334 196.6946900305014 634.1269854779724 193.89633451859947 639.5007802265114 191.09797900669756 643.8293755329204 189.07534085084694 648.1579708393293 187.0527026949963 653.4820544289983 184.37127228766326 658.8061380186671 181.68984188033025 664.8903570546336 177.87408779105598 670.9745760906002 174.05833370178172 675.2457845590695 171.87530603100706 679.516993027539 169.6922783602324 685.2985694852148 167.5749972694757 691.0801459428905 165.45771617871898 697.3927394996545 163.82748496441076 703.7053330564185 162.19725375010253 709.0763335180015 161.08845616201302 714.4473339795848 159.97965857392353 719.4182773626271 159.0075314007873 724.3892207456694 158.03540422765101 729.7115534240006 157.00753904564675 735.0338861023317 155.97967386364252 742.0303924021209 155.1159216974599 749.02689870191 154.25216953127725 755.3607005544557 153.51754780455914 761.6945024070013 152.78292607784104 767.332245937496 152.7675824073203 772.9699894679909 152.75223873679957 779.5284125380358 152.71902055175997 786.0868356080806 152.68580236672037 792.8932954758502 153.13421581851867 799.6997553436198 153.582629270317 805.8125430174534 154.9757208781357 811.9253306912872 156.36881248595435 816.8823094190427 158.21100836391923 821.8392881467983 160.0532042418841 828.2380217928194 162.0331435749265 834.6367554388404 164.01308290796894 839.4848632108327 167.45066488394394 844.332970982825 170.88824685991892 849.0309795422255 175.2869534731588 853.728988101626 179.68566008639866 857.4760625416191 183.38366893083455 861.2231369816122 187.08167777527044 866.38837118356 193.40303578496741 871.5536053855078 199.72439379466442 875.9639072301802 205.71724402932753 880.3742090748526 211.71009426399064 883.0290635533274 215.77050006696464 885.6839180318024 219.83090586993868 887.6055939383939 224.45548762970142 889.5272698449854 229.08006938946417 892.3374524397798 236.36999326258234 895.147635034574 243.65991713570048 896.7245409861771 249.2008430909745 898.30144693778 254.74176904624855 899.6998607969106 261.07485194835107 901.0982746560411 267.40793485045356 901.3575651993888 273.6685018085842 901.6168557427366 279.9290687667149 901.5858903680971 285.2511075977163 901.5549249934577 290.5731464287178 901.5650184265226 296.6753456374073 901.5751118595874 302.7775448460968 901.5018868790728 308.6169632405813 901.4286618985581 314.4563816350657 900.8318185415084 320.07216477255747 900.2349751844587 325.6879479100493 898.4359681738541 332.7964816813388 896.6369611632496 339.9050154526283 894.4023872551641 346.95928699502235 892.1678133470784 354.0135585374165 889.6365948152425 359.6592620240099 887.1053762834065 365.30496551060327 883.5716031533075 372.21731253039604 880.0378300232084 379.1296595501888 875.6946357768572 385.99362841453296 871.3514415305061 392.85759727887705 868.2322447163698 397.4085410534481 865.1130479022335 401.9594848280192 861.0407387805042 406.7905578093192 856.9684296587748 411.6216307906192 853.77454104297 415.8185632661115 850.5806524271653 420.01549574160373 846.5918828747215 423.6815116008557 842.6031133222777 427.34752746010764 838.4491684484981 430.8463852569686 834.2952235747184 434.34524305382945 830.287726896589 437.23577124048415 826.2802302184596 440.1262994271388 821.2699238767092 443.58498081718335 816.2596175349588 447.0436622072279 812.4155912661186 450.09603866939517 808.5715649972783 453.14841513156244 801.2588121645285 457.85638016788323 793.9460593317787 462.564345204204 788.288195142572 465.35291935428336 782.6303309533654 468.14149350436276 777.1453740016202 470.8696836637921 771.6604170498752 473.5978738232215 764.3408498662536 476.6633383363621 757.021282682632 479.72880284950264 751.8132418577945 481.2975937998764 746.6052010329571 482.86638475025006 741.2380710921072 484.12148509856814 735.8709411512575 485.3765854468862 729.9602193165761 486.42913926659094 724.0494974818946 487.4816930862957 718.4842138772142 487.73384340080787 712.9189302725339 487.98599371532003 706.8616440516134 488.0113099079804 700.804357830693 488.0366261006408 695.5845385436389 488.1239696769522 690.3647192565847 488.2113132532636 684.6668106417844 486.7985433996737 678.968902026984 485.3857735460838 674.6891093524137 483.16596898356113 670.4093166778433 480.9461644210385 665.695008109342 477.7108276804071 660.9806995408406 474.4754909397756 656.9222101123128 471.0607144000122 652.8637206837848 467.6459378602488 649.2121263286858 462.7424013440434 645.560531973587 457.838864827838 642.0703933568682 451.38496560462966 638.5802547401493 444.9310663814214 636.4373375161439 438.74702818956166 634.2944202921385 432.5629899977019 633.8959571838923 427.0031793034493 633.4974940756462 421.4433686091968 634.5941945233977 415.2519818727633 635.6908949711493 409.0605951363297 639.3741680081102 399.3292357539703 643.0574410450711 389.5978763716109 645.4131987315568 384.47524590726425 647.7689564180425 379.3526154429176 651.0851815415263 371.8577898081312 654.40140666501 364.3629641733448 657.8238781058565 357.2240802803698 661.246349546703 350.08519638739483 664.7125006024585 344.69761939030076 668.178651658214 339.3100423932067 670.8951546716976 334.6835624287109 673.6116576851813 330.0570824642151 677.965630646047 323.9145263751343 682.3196036069128 317.77197028605354 687.3634968564295 311.8831270720501 692.4073901059462 305.99428385804663 697.3431008424029 300.1334683344502 702.2788115788596 294.27265281085374 707.342013471475 289.02193353541827 712.4052153640904 283.77121425998286 717.1753999514891 278.93151552924627 721.9455845388878 274.0918167985097 727.0814802093889 268.81184252483 732.21737587989 263.53186825115034 738.3298110973813 259.0101545995884 744.4422463148724 254.48844094802652 748.9311660431913 251.25323620422478 753.4200857715101 248.018031460423 759.4064266488064 244.83840421773337 765.3927675261026 241.65877697504374 772.762786203449 239.00093710619714 780.1328048807952 236.34309723735055 786.4644714347884 235.30275304725882 792.7961379887815 234.2624088571671 797.6836826590497 234.0977254975066 802.5712273293179 233.93304213784606 807.7713543493536 233.83306645570835 812.9714813693893 233.73309077357064 819.1514124099772 236.99701353366618 825.3313434505651 240.26093629376172 827.8651839337219 245.03272378024914 830.3990244168789 249.80451126673657 832.9365789233834 254.58482687066828 835.4741334298881 259.36514247459996 835.7125023391361 267.2670586651689 835.9508712483843 275.1689748557379 834.7865848009835 281.5781278103133 833.6222983535827 287.98728076488874 831.2970150635706 293.9876735691272 828.9717317735586 299.9880663733656 827.0357488405964 306.97346438397136 825.0997659076342 313.9588623945771 822.8227472478059 318.78125788366117 820.5457285879776 323.60365337274516 817.4782954132768 329.17404230342345 814.410862238576 334.74443123410174 812.120884744292 339.59016424099775 809.8309072500081 344.4358972478938 806.2996548164152 351.1479907643784 802.7684023828224 357.86008428086296 799.8159063346181 363.2351309880113 796.863410286414 368.6101776951596 793.015672442908 373.76422785282045 789.167934599402 378.91827801048134 785.6576396836622 384.2207150390061 782.1473447679224 389.52315206753093 778.2668159039933 393.17376784455985 774.3862870400642 396.82438362158877 771.2138055362315 400.66875945403467 768.0413240323987 404.5131352864805 762.5134938413726 408.98239468619033 756.9856636503465 413.45165408590015 752.8968236367041 416.20810916664175 748.8079836230618 418.96456424738335 743.7925303902335 421.8322829294917 738.7770771574053 424.7000016116001 732.5768291811407 427.46299607789194 726.3765812048763 430.2259905441838 721.7841192620887 432.0383326945199 717.191657319301 433.850674844856 710.7286945590533 432.10709677666296 704.2657317988056 430.3635187084699 701.1802633628556 424.80813539333036 698.0947949269057 419.25275207819084 697.7637777133882 414.39030388351546 697.4327604998708 409.52785568884 697.9229821362294 401.7418029914138 698.413203772588 393.95575029398765 700.6186351027708 388.31285295202986 702.8240664329536 382.669955610072 704.4152730411703 377.7933838232386 706.006479649387 372.91681203640525 708.7139116534695 368.7063869138327 711.4213436575519 364.4959617912602 714.5946399491752 358.7362839477587 717.7679362407986 352.97660610425726 721.2291517124759 349.9744967880391 724.690367184153 346.97238747182104 726.5409719385304 346.2867432614459 728.3915766929078 345.6010990510708 730.3642360112092 345.54226747737266 732.3368953295106 345.48343590367455 734.2250712603784 346.05757664794965 736.1132471912463 346.6317173922248 737.7192472162885 347.7787177669891 739.3252472413307 348.9257181417534 740.4809227339827 350.52548690499043 741.6365982266346 352.1252556682274 742.2209496577469 354.0102966081282 742.8053010888592 355.89533754802903 742.7571467093406 357.86828638058364 742.7089923298221 359.8412352131382 742.0333739159197 361.6955236747701 741.3577555020173 363.54981213640195 740.1254104800126 365.09129573569373 738.893065458008 366.6327793349855 737.2330206770125 367.7000643321792 735.5729758960169 368.76734932937285 733.65903848281 369.24869070352634 731.745101069603 369.7300320776798 729.7776607765779 369.5750332598575 727.8102204835528 369.4200344420351 725.9952688287431 368.64492384937864 724.1803171739332 367.8698132567222 722.7078800746979 366.5557451728921 721.2354429754627 365.24167708906197 720.2596849847777 363.5262347893155 719.2839269940927 361.810792489569 718.9070102311576 359.8735832355224 718.5300934682226 357.9363739814758 718.7914812176132 355.9802240934014 719.0528689670039 354.02407420532694 719.9251938623593 352.25379309287945 720.7975187577147 350.48351198043196 722.1894481522197 349.0844485433935 723.5813775467249 347.68538510635506 725.3471760653413 346.80402165590044 727.1129745839577 345.9226582054458 729.0677626556608 345.651273727495 731.0225507273638 345.3798892495442 732.9616615250322 345.7468977705772 734.9007723227007 346.1139062916102 736.6211804339432 347.08088192259396 738.3415885451856 348.0478575535777 739.6631667866112 349.5135576906915 740.9847450280369 350.9792578278053 741.7691238089058 352.79022327978606 742.5535025897747 354.6011887317668 742.7185572446739 356.5678109377436 742.8836118995731 358.5344331437205 742.4120611625646 360.45080623958984 741.940510425556 362.3671793354592 740.8817257832818 364.03265855221014 739.8229411410075 365.6981377689611 738.2877776250057 366.938346992956 736.7526141090037 368.17855621695094 736.7542045716716 368.1776515484248 736.7557950343394 368.17674687989864 735.8618641761327 369.2099267893372 734.9679333179259 370.24310669877576 731.9204892761476 375.5438004669765 728.8730452343692 380.84449423517725 727.0037634055846 386.6244165641975 725.1344815767999 392.4043388932177 723.4875844962097 398.5903352866193 721.8406874156195 404.7763316800208 721.7790556410112 409.856779923865 721.7174238664027 414.93722816770924 717.3468836701411 412.9265993793828 712.9763434738794 410.9159705910564 717.401327829485 408.79540276373905 721.8263121850906 406.6748349364217 728.6607321620204 402.92529906369435 735.4951521389501 399.175763190967 740.5765213894956 395.72862806841744 745.657890640041 392.28149294586785 749.5806856698669 389.1952419107566 753.5034806996927 386.1089908756453 759.0570134190968 379.99837936414156 764.6105461385011 373.88776785263775 767.3398786846399 369.57358770845826 770.0692112307787 365.2594075642787 773.7850592100187 359.6470684626148 777.5009071892588 354.03472936095085 780.8086009975366 348.8643230215505 784.1162948058144 343.6939166821502 786.3627504116369 338.90035213480326 788.6092060174594 334.10678758745627 790.6386710588883 329.77898567853174 792.6681361003174 325.45118376960716 796.2812036177966 318.6899453359057 799.8942711352757 311.9287069022042 801.828986357362 307.58585322630677 803.7637015794484 303.2429995504093 805.939265591499 295.76293073635793 808.1148296035495 288.2828619223066 809.6870216010361 283.4852152730017 811.2592135985227 278.68756862369685 811.5037444134214 273.5336595961545 811.74827522832 268.37975056861217 811.559616273777 262.6697646606053 811.3709573192341 256.9597787525984 805.8682134539781 256.87047474180144 800.3654695887222 256.7811707310044 794.5579922660194 256.7684791513178 788.7505149433165 256.7557875716313 782.0816126323629 258.83432435235295 775.4127103214092 260.91286113307467 770.05053160846 263.72205128870274 764.6883528955108 266.5312414443308 760.714520764785 269.2689080110613 756.7406886340593 272.00657457779175 752.0599214501576 275.25567268595523 747.3791542662558 278.50477079411866 742.6884634807591 283.40493170890545 737.9977726952624 288.30509262369225 733.300264100666 293.00430958852303 728.6027555060697 297.7035265533538 723.6333791659567 302.8797941538563 718.6640028258439 308.0560617543588 715.6709378651242 311.7994344146115 712.6778729044046 315.54280707486413 708.355897668506 320.55523881263537 704.0339224326074 325.56767055040655 700.3056591265404 330.83392935461757 696.5773958204735 336.10018815882864 692.2862996259307 342.23374980448887 687.9952034313881 348.36731145014903 684.0467370081536 354.1801316245857 680.0982705849192 359.9929517990224 676.9942576176132 366.61131842124405 673.8902446503073 373.2296850434656 670.8086914388911 380.54327436275054 667.7271382274748 387.85686368203545 665.9386058200735 392.4602364159567 664.1500734126721 397.0636091498779 661.655270470367 405.36994034777877 659.1604675280618 413.67627154567964 658.3551174241238 419.364568105593 657.5497673201859 425.0528646655063 658.6862321876347 429.74692775307756 659.8226970550834 434.44099084064874 663.2890407770599 441.69688319652505 666.7553844990363 448.9527755524013 670.8922328545439 452.34920704639956 675.0290812100515 455.7456385403978 679.6168887367601 459.24710704970505 684.2046962634687 462.7485755590123 690.2088808349663 464.11591296412644 696.2130654064639 465.4832503692405 701.8997419971952 465.4681592672111 707.5864185879265 465.45306816518166 714.3718143433969 465.3565531827677 721.1572100988672 465.2600382003538 726.16524770153 464.39530023230816 731.1732853041929 463.5305622642626 737.5530413008628 462.14459397486127 743.9327972975326 460.75862568545995 749.0668254563129 458.9473332057173 754.2008536150931 457.1360407259747 760.7248944095426 453.98340112265646 767.248935203992 450.8307615193383 772.753896199205 448.1182042311905 778.258857194418 445.4056469430427 783.0991824112554 442.7528173857868 787.9395076280927 440.0999878285308 793.2225910094658 436.1675356399509 798.505674390839 432.23508345137105 803.4944607330486 428.41202265365223 808.4832470752583 424.58896185593335 813.640706731687 420.7805732599383 818.7981663881158 416.97218466394327 822.76562282757 413.62767699700817 826.7330792670243 410.2831693300731 831.1445046434221 406.0539404482406 835.5559300198198 401.8247115664081 839.2180855357806 397.4983222086595 842.8802410517413 393.1719328509108 845.8314682136789 388.7660275636844 848.7826953756165 384.360122276458 851.9225246801618 379.84476611543107 855.0623539847072 375.32940995440407 858.3562523406401 369.9886262465898 861.650150696573 364.6478425387754 863.6953831462927 359.9884234538787 865.7406155960123 355.329004368982 868.0271410483684 349.8555841099474 870.3136665007246 344.38216385091283 872.1931677778687 338.1979845472613 874.0726690550129 332.0138052436098 875.7895475394532 325.76519161094484 877.5064260238935 319.5165779782799 877.4865924680793 314.6829447834772 877.466758912265 309.84931158867454 877.4048272823126 304.60100927194094 877.3428956523601 299.35270695520734 877.3235670296223 292.5750289765633 877.3042384068845 285.79735099791924 877.2163672982813 279.47871814642417 877.1284961896781 273.16008529492905 876.3114386354287 268.3747105702445 875.4943810811792 263.58933584555984 874.1504563623889 258.4286357592861 872.8065316435986 253.2679356730124 870.4921772237179 246.59994831616 868.1778228038372 239.93196095930764 865.4454101586853 233.96747117595868 862.7129975135334 228.0029813926097 859.1035565747278 223.03878924607054 855.4941156359222 218.07459709953136 850.7930657507163 212.2888033475602 846.0920158655105 206.503009595589 841.9670249719393 202.34238632508544 837.8420340783682 198.1817630545819 833.1373556173799 193.5805355070694 828.4326771563916 188.97930795955693 824.0525836202926 186.39825927445952 819.6724900841936 183.8172105893621 813.4831197328936 182.02613760953474 807.2937493815936 180.23506462970738 801.6516201206251 178.63569057963645 796.0094908596567 177.0363165295655 791.0546072391994 176.68460118777944 786.0997236187421 176.3328858459934 779.5856999645273 176.31918884988633 773.0716763103126 176.30549185377927 767.8095387134765 176.38606596962256 762.5474011166406 176.46664008546585 756.3090076952938 177.13988531062492 750.070614273947 177.81313053578398 744.1945342946847 178.52240064706774 738.3184543154225 179.23167075835147 733.5245883782916 180.04225229294866 728.7307224411605 180.85283382754582 722.6568946200489 182.1748740078034 716.5830667989371 183.496914188061 710.2242539440108 184.3285445564448 703.8654410890846 185.16017492482857 696.7560084664581 187.54361655855126 689.6465758438314 189.92705819227396 684.2601110774626 192.44254176502943 678.8736463110938 194.95802533778487 673.8014852625543 198.24332532331158 668.7293242140147 201.52862530883831 663.3887121781684 204.17980201358353 658.0481001423219 206.83097871832877 653.8342008703719 209.08001600327066 649.6203015984219 211.32905328821252 643.7631287204963 214.56045070894623 637.9059558425707 217.79184812967992 631.5642980283183 222.71963884177688 625.2226402140659 227.64742955387388 621.6569810376359 231.23308760556841 618.0913218612059 234.81874565726292 613.6450494569664 239.72512693108288 609.1987770527269 244.63150820490284 604.0396046279081 249.9016139813564 598.8804322030894 255.17171975780997 594.9017813884367 259.824572906403 590.923130573784 264.477426054996 587.6946497899497 269.12598944629974 584.4661690061155 273.77455283760344 581.9242159748458 278.0652834382502 579.382262943576 282.356014038897 575.7593764117773 288.16144761652015 572.1364898799785 293.96688119414335 568.7004674576776 301.18105863812195 565.2644450353766 308.3952360821006 560.8771141832823 316.85951267603116 556.4897833311879 325.32378926996165 554.2841739461078 329.7840528114334 552.0785645610276 334.2443163529051 550.2697775735312 338.74404207905013 548.4609905860349 343.24376780519515 545.4828719303663 351.05309613950226 542.5047532746977 358.86242447380937 541.3459469419881 363.97769427994245 540.1871406092787 369.09296408607554 537.8934348041416 375.4501698529738 535.5997289990045 381.807375619872 534.2199705454584 387.15666187700083 532.8402120919125 392.50594813412965 531.9127271920008 397.188235238008 530.9852422920891 401.87052234188644 529.7690259775129 410.6296655389125 528.5528096629366 419.3888087359386 528.275500199616 425.10172878807305 527.9981907362953 430.81464884020755 527.7157352640804 436.8890648756075 527.4332797918655 442.9634809110075 527.568445288251 450.268991819858 527.7036107846367 457.5745027287085 528.6116746587447 463.39193741237034 529.5197385328529 469.20937209603215 530.2618809356966 473.9143167834277 531.0040233385402 478.6192614708233 531.9753110888296 483.7968155827041 532.9465988391189 488.9743696945849 536.1457479546502 496.27923649116883 539.3448970701817 503.5841032877527 542.3450866665414 509.2258311591919 545.3452762629012 514.8675590306311 549.4576365127502 521.7370489912914 553.5699967625993 528.6065389519516 556.6407308319318 532.4375121023467 559.7114649012643 536.2684852527417 563.415400252175 540.8880906387259 567.1193356030857 545.5076960247101 571.6133440611497 549.368831157848 576.1073525192137 553.2299662909861 581.0323772570674 557.1464194975881 585.9574019949212 561.0628727041902 590.3437736071323 564.1855048225027 594.7301452193435 567.3081369408152 599.2956875659627 569.5629994233169 603.861229912582 571.8178619058186 608.2035499593567 573.7924165990357 612.5458700061313 575.766971292253 617.1574251980635 578.3433642429795 621.7689803899957 580.9197571937062 627.3044747812835 582.9430360633378 632.8399691725714 584.9663149329692 639.0719730058888 586.9104005577146 645.3039768392063 588.8544861824599 650.2396481712232 590.4986169637193 655.1753195032401 592.1427477449788 660.5094781732539 593.3104565531563 665.8436368432679 594.4781653613338 672.1927005134626 596.0232520578685 678.5417641836574 597.5683387544032 684.2311723147609 597.6758828064693 689.9205804458643 597.7834268585354 696.7384739088542 598.3334914719286 703.5563673718441 598.8835560853217 709.6331977098409 598.9022312058721 715.7100280478377 598.9209063264225 720.8487182415108 598.1515949917148 725.987408435184 597.382283657007 730.8881697294264 596.5552458210864 735.7889310236687 595.7282079851657 741.431452376486 594.5344305513763 747.0739737293035 593.340653117587 752.5157105306604 592.7717397527517 757.9574473320173 592.2028263879164 762.8484673750474 592.26843972296 767.7394874180775 592.3340530580036 772.8495607167363 592.1855172831511 777.9596340153951 592.0369815082986 784.4285567722548 590.694887404121 790.8974795291145 589.3527932999434 796.7125995465158 587.5433994059742 802.5277195639171 585.7340055120052 810.4616495541536 583.7800318852428 818.39557954439 581.8260582584804 822.8086644287905 579.6219667517198 827.221749313191 577.4178752449591 832.3471895622744 574.4963043339656 837.4726298113577 571.5747334229719 843.4980618081424 568.3732862271771 849.523493804927 565.1718390313823 858.0554746658042 559.755777062842 866.5874555266815 554.3397150943016 872.5778636083976 550.4719113352769 878.5682716901135 546.6041075762522 883.374209282052 543.2519479070143 888.1801468739905 539.8997882377764 892.8996782489855 535.7328897591688 897.6192096239807 531.5659912805612 903.5839405183464 526.6655093913631 909.548671412712 521.765027502165 913.1764240222185 518.3877302980487 916.8041766317251 515.0104330939324 921.0558703786855 509.9441192552807 925.3075641256461 504.8778054166291 930.4457028754355 498.9210637500659 935.5838416252247 492.96432208350274 941.1725783441336 487.08505597774587 946.7613150630425 481.205789871989 949.8423248078266 476.8831009905223 952.9233345526108 472.56041210905556 956.3017481855055 466.72168253093116 959.6801618184003 460.8829529528068 962.823402474937 454.76474627727407 965.9666431314736 448.64653960174127 968.1145767193854 443.43923360212455 970.2625103072971 438.23192760250777 973.2521956914022 430.3807385352008 976.2418810755074 422.52954946789384 978.9335321896795 417.03092132676375 981.6251833038515 411.53229318563365 983.056582130047 405.82054383714626 984.4879809562426 400.1087944886589 986.1016308251791 392.84544275535956 987.7152806941156 385.58209102206024 988.7776565574453 380.8481553464162 989.8400324207751 376.1142196707722 991.0723140310454 369.34603163514316 992.3045956413156 362.57784359951415 992.8602508881852 357.3960839018832 993.4159061350549 352.2143242042522 994.6798471031735 343.6307954242351 995.9437880712921 335.047266644218 996.0406986730802 330.1968466529705 996.1376092748682 325.3464266617231 996.1663594897234 319.83248275202493 996.1951097045787 314.31853884232675 996.0765331994586 309.0055609278759 995.9579566943385 303.69258301342506 995.3342354414992 297.7257465487189 994.7105141886601 291.7589100840127 994.655788613516 285.89190398887774 994.6010630383719 280.0248978937427 994.5198947182797 273.87153603001207 994.4387263981876 267.71817416628136 994.3448893236425 262.5564326309426 994.2510522490976 257.3946910956038 993.7646127390194 252.2603882361071 993.2781732289413 247.12608537661043 992.5575158690538 239.60778339643173 991.8368585091661 232.08948141625305 991.4933584952435 226.78783034592135 991.149858481321 221.48617927558968 989.1887770792157 215.3524544670749 987.2276956771105 209.2187296585601 985.6976422552891 204.52732073255635 984.1675888334678 199.8359118065526 980.2243224548658 195.01541311527694 976.281056076264 190.1949144240013 974.5044071852199 185.62879646285757 972.7277582941758 181.06267850171386 970.3416507318435 177.85005829178243 967.9555431695112 174.63743808185103 967.3590961621528 173.60213441164333 966.7626491547944 172.56683074143564 966.4313070295082 171.41886945369845 966.099964904222 170.2709081659613 966.0529852808978 169.07700882467466 966.0060056575736 167.88310948338804 966.2461189941262 166.71266157436264 966.4862323306788 165.54221366533727 966.9994832287061 164.46324367603893 967.5127341267336 163.3842736867406 968.2692924199273 162.45949140364255 969.025850713121 161.53470912054448 969.9817451979341 160.81786293339104 970.9376396827471 160.1010167462376 972.0373137268095 159.63376978910702 973.1369877708719 159.16652283197644 974.3165282670748 158.97603151997066 975.4960687632778 158.78554020796489 976.6869207625614 158.88287590508787 977.8777727618451 158.9802116022109 979.0107238900591 159.35971715317254 980.1436750182733 159.73922270413422 981.1528781026145 160.3788412284817 982.1620811869558 161.01845975282916 982.988881296745 161.881016591875 983.8156814065343 162.74357343092086 983.8153840599177 162.74317692746462 Z" fill="hsl(0, 0%, 0%)"></path></svg>