<svg xmlns="http://www.w3.org/2000/svg" version="1.1" xmlns:xlink="http://www.w3.org/1999/xlink" viewBox="0 0 1422 800" style="overflow: hidden; display: block;" width="1422" height="800"><defs></defs><g id="two-0" transform="matrix(1 0 0 1 0 0)" opacity="1"></g><path d="M 630.7253432170318 161.71945190429688 Q 630.7253432170318 161.71945190429688 630.6356939338908 168.53327560424805 630.5460446507499 175.34709930419922 630.6977790793953 182.96080025434495 630.8495135080408 190.57450120449067 630.9512924544277 199.0942190559432 631.0530714008147 207.61393690739573 631.140345596401 216.11215318884007 631.2276197919873 224.6103694702844 631.9083853432633 231.35690585757743 632.5891508945391 238.10344224487045 632.6518813739839 249.0449145275025 632.7146118534287 259.98638681013455 632.8147308088653 267.76028116812654 632.914849764302 275.5341755261185 632.936927444596 284.6596356982763 632.9590051248899 293.78509587043413 632.9878339565694 302.16608131526425 633.0166627882488 310.5470667600944 633.0679726399145 318.8047395599087 633.1192824915802 327.06241235972294 633.8130946138476 335.5354276057826 634.5069067361152 344.00844285184223 634.622309075213 353.11455801386035 634.7377114143109 362.2206731758785 634.837814772296 368.49197746419145 634.9379181302812 374.76328175250444 634.9769299544062 382.18121027535915 635.015941778531 389.59913879821386 635.6071145394133 396.4073713083197 636.1982873002955 403.2156038184255 636.348078996318 410.4820253176463 636.4978706923406 417.74844681686704 636.5636305817661 424.28801307966273 636.6293904711915 430.8275793424585 637.311153405399 437.19694478939346 637.9929163396065 443.5663102363284 638.5986995129795 451.37960932227213 639.2044826863525 459.19290840821594 639.3190135416371 466.20383904826133 639.4335443969218 473.2147696883067 639.5509800100589 480.9972840258474 639.668415623196 488.7797983633881 639.7712615662444 495.1723815482335 639.874107509293 501.56496473307885 639.9237235695347 509.4499884563737 639.9733396297763 517.3350121796685 640.1287748879807 523.7308374061262 640.2842101461852 530.1266626325838 640.3197476456281 532.9186149046204 640.3552851450711 535.710567176657 639.941941504723 538.2317701822833 639.5285978643748 540.7529731879096 638.3318441245867 543.0102055744615 637.1350903847988 545.2674379610132 635.2802269780391 547.0243669017673 633.4253635712794 548.7812958425212 631.1065951858722 549.8539704135962 628.7878268004649 550.9266449846712 626.2479290984577 551.202755875317 623.7080313964503 551.478866765963 621.2129323377111 550.9295050930428 618.7178332789719 550.3801434201227 616.5287703935928 549.0628274958088 614.3397075082138 547.745511571495 612.6858762581505 545.7981647208005 611.0320450080874 543.8508178701061 610.0866019617907 541.4773278223485 609.1411589154941 539.1038377745908 609.003092209484 536.5527095643108 608.8650255034738 534.0015813540308 609.5487907583156 531.5399187782771 610.2325560131573 529.0782562025234 611.6665628261724 526.9637959827933 613.1005696391876 524.8493357630632 615.1346771185124 523.3034624425256 617.1687845978373 521.7575891219881 619.5900211534343 520.9421560453743 622.0112577090314 520.1267229687606 624.5661192343852 520.1271061944456 627.1209807597389 520.1274894201305 629.541972578727 520.9436488242837 631.9629643977152 521.759808228437 633.9966080278098 523.3062917059985 636.0302516579043 524.8527751835601 637.4636240742045 526.9676655061972 638.8969964905049 529.0825558288344 639.5800232226509 531.5444234214904 640.2630499547968 534.0062910141462 640.124217923631 536.5573776899997 639.9853858924653 539.1084643658533 639.039230848299 541.4816706765212 638.0930758041328 543.854876987189 636.4386604298509 545.8017276054786 634.784245055569 547.7485782237683 632.5947870775822 549.0652373760262 630.4053290995952 550.3818965282841 627.9100653461592 550.9305096537045 625.4148015927232 551.4791227791249 622.8749868375085 551.2022499386565 620.3351720822939 550.9253770981882 618.0167256006175 549.8520069513154 615.6982791189412 548.7786368044427 613.8439428694451 547.0211514888854 611.989606619949 545.2636661733279 610.7935300974526 543.0060748655558 609.5974535749563 540.7484835577837 609.1848663070984 538.227156663667 608.7722790392407 535.7058297695502 608.7722786839352 535.7081984950258 608.7722783286297 535.7105672205015 608.9066782935543 529.1625264393006 609.0410782584787 522.6144856580996 609.157702425721 515.7902688726795 609.2743265929633 508.9660520872593 609.329406959415 501.04412061065494 609.3844873258666 493.1221891340506 609.4839764252476 486.24867685419076 609.5834655246288 479.3751645743309 609.5552860520003 472.28448981374174 609.5271065793718 465.19381505315266 609.1443769636521 456.82442704155676 608.7616473479326 448.45503902996086 607.8334166284931 439.67103347171167 606.9051859090534 430.88702791346253 606.9336367109213 424.43065430701745 606.9620875127893 417.9742807005724 606.7928021980887 408.7064968025634 606.6235168833881 399.4387129045544 606.2133282364018 391.19344012792607 605.8031395894154 382.94816735129774 605.8685778847885 372.6762570604353 605.9340161801616 362.4043467695729 605.7504934327037 352.1427104913354 605.5669706852458 341.88107421309786 605.211039334019 334.4718548063403 604.8551079827923 327.0626353995827 604.9061982072213 318.80568192065505 604.9572884316503 310.5487284417274 604.9849013339916 302.169735352041 605.0125142363329 293.7907422623547 605.0278601279033 284.6870175779831 605.0432060194736 275.58329289361154 605.1060555563711 267.8672167632624 605.1689050932686 260.15114063291315 605.0252996915278 249.79799318155463 604.8816942897871 239.4448457301961 604.4201158621811 232.03718581222333 603.9585374345752 224.62952589425055 604.0458116301616 216.12173140082314 604.1330858257478 207.61393690739573 604.2348647721348 199.0942190559432 604.3366437185217 190.57450120449067 604.4883781471672 182.96080025434495 604.6401125758126 175.34709930419922 604.5504632926717 168.53327560424805 604.4608140095307 161.71945190429688 604.6516259684774 160.1480245497014 604.8424379274242 158.57659719510593 605.403783804245 157.09650127219274 605.9651296810658 155.61640534927955 606.8643840270253 154.31366410263036 607.7636383729847 153.0109228559812 608.9485364832443 151.9612516680603 610.1334345935039 150.91158048013943 611.5351101342233 150.1759862897074 612.9367856749425 149.44039209927536 614.4737731978373 149.06162767524182 616.0107607207323 148.6828632512083 617.5937304387571 148.68294239969424 619.1767001567819 148.68302154818022 620.7136497955494 149.061939669072 622.250599434317 149.44085778996373 623.652201408609 150.17659214427164 625.0538033829009 150.91232649857952 626.2385965201174 151.96211617106286 627.4233896573339 153.01190584354623 628.3225137246727 154.31473700911613 629.2216377920114 155.61756817468606 629.7828356564335 157.09772022478637 630.3440335208555 158.57787227488666 630.534688336113 160.14931870282084 630.7253431513705 161.72076513075504 630.7253431842012 161.72010851752594 Z" fill="hsl(0, 0%, 0%)"></path><path d="M 601.8748291784378 134.3986493892667 Q 601.8748291784378 134.3986493892667 603.822266776505 130.7598862145462 605.7697043745721 127.12112303982573 609.7642916498028 120.10677315308932 613.7588789250333 113.09242326635291 617.338441460402 107.44311707262797 620.9180039957707 101.79381087890303 624.697674254083 95.91203984683332 628.4773445123953 90.03026881476362 632.3588400242891 84.96311289478646 636.2403355361829 79.8959569748093 640.0870162901647 74.5137191616524 643.9336970441466 69.1314813484955 647.918821859959 62.816981475642436 651.9039466757714 56.50248160278937 654.878645913725 50.84446019223304 657.8533451516785 45.186438781676706 661.614780329666 39.48960557043144 665.3762155076535 33.79277235918618 667.6826949559842 32.52903172436953 669.9891744043149 31.265291089552875 672.5784360563098 30.804192471936197 675.1676977083046 30.343093854319523 677.7686451855009 30.732914400885498 680.3695926626972 31.122734947451477 682.7099060776491 32.32266034407202 685.0502194926011 33.52258574069256 686.8848674129804 35.406983481591965 688.7195153333597 37.29138122249136 689.8564096376026 39.66295436676475 690.9933039418456 42.03452751103814 691.3134114961871 44.6449717244456 691.6335190505285 47.255415937853044 691.1033245095286 49.831417022160444 690.5731299685289 52.407418106467844 689.2481448405882 54.679268068149966 687.9231597126476 56.95111802983208 685.9421102904237 58.68095357819065 683.9610608681998 60.410789126549226 681.5313635491456 61.41749602303888 679.1016662300914 62.424202919528526 676.4777109648898 62.60237868634197 673.8537556996881 62.78055445315542 671.3102712972625 62.111544040473454 668.766786894837 61.44253362779149 666.5700768435362 59.99638260242352 664.3733667922354 58.55023157705556 662.7534272143056 56.478352333104404 661.1334876363758 54.406473089153245 660.2599266332488 51.92579193038361 659.3863656301219 49.44511077161397 659.3506452694228 46.81535567018524 659.3149249087238 44.18560056875651 660.120785121647 41.68210757797622 660.9266453345704 39.17861458719592 662.4897123440966 37.06350008405673 664.0527793536228 34.948385580917524 666.2093996312448 33.4431026122341 668.3660199088667 31.937819643550675 670.8903947422252 31.199971733500284 673.4147695755836 30.462123823449893 676.0425962532554 30.568963842987756 678.6704229309273 30.675803862525616 681.1265673060816 31.616145633403086 683.5827116812359 32.55648740428055 685.6100147894347 34.23187689486064 687.6373178976336 35.90726638544073 689.0235205682925 38.142289873799825 690.4097232389514 40.377313362158915 691.0096896865305 42.93796329907691 691.6096561341096 45.49861323599491 691.3605697131716 48.116788897130576 691.1114832922336 50.73496455826624 690.0394234168032 53.13654226076741 688.9673635413726 55.538119963268585 687.1845751634035 57.471653887728436 685.4017867854344 59.405187812188295 685.4037077166078 59.40368589433121 685.4056286477811 59.40218397647413 686.2260007961331 59.13869570792549 687.0463729444851 58.87520743937686 683.2349057757995 64.87462317135554 679.4234386071137 70.87403890333422 675.039000063932 77.1482451576564 670.6545615207502 83.42245141197859 666.5276051801441 89.46348407312658 662.4006488395378 95.50451673427457 657.9693663892 100.10642756097744 653.5380839388622 104.70833838768031 649.5820721007204 110.58022730088982 645.6260602625787 116.45211621409933 640.7980032384869 123.04340566351483 635.9699462143951 129.63469511293033 632.518945687978 134.8495980024947 629.0679451615607 140.06450089205904 627.0072635579677 143.6403750922165 624.9465819543747 147.21624929237393 624.0120784931627 148.50353039370083 623.0775750319507 149.79081149502773 621.862152116972 150.81703588111262 620.6467292019933 151.8432602671975 619.221027270173 152.5487837285042 617.7953253383525 153.2543071898109 616.2422062529541 153.59812466961938 614.6890871675557 153.94194214942786 613.0988182827957 153.90407095965745 611.5085493980356 153.86619976988703 609.9735572162147 153.44884098586658 608.4385650343936 153.0314822018461 607.0480633732404 152.25889273571238 605.6575617120873 151.48630326957863 604.4923665934805 150.40338605740328 603.3271714748738 149.3204688452279 602.4550040938534 147.9901630862632 601.582836712833 146.6598573272985 601.0543874785625 145.15948045475966 600.525938244292 143.6591035822208 600.3719206510962 142.07585757043466 600.2179030579005 140.4926115586485 600.4472686155324 138.91851474020854 600.6766341731643 137.3444179217686 601.2760521446378 135.8709568777212 601.8754701161113 134.39749583367382 601.8751496472746 134.39807261147024 Z" fill="hsl(0, 0%, 0%)"></path><path d="M 690.1587887128023 37.87795167090024 Q 690.1587887128023 37.87795167090024 692.6068882059474 41.85954354948291 695.0549876990925 45.84113542806557 699.407433657907 51.46641691675264 703.7598796167215 57.091698405439715 708.130613113634 63.689948999023265 712.5013466105465 70.28819959260682 717.3036556500527 75.42407192813724 722.105964689559 80.55994426366766 726.4593905563098 85.34317288168097 730.8128164230607 90.1264014996943 735.2408915922731 95.02151211461629 739.6689667614856 99.91662272953829 743.9196170059081 104.69948698984614 748.1702672503305 109.48235125015398 752.1461862736448 115.20731027501128 756.1221052969593 120.9322692998686 757.6215726224241 121.88507355068029 759.121039947889 122.83787780149198 760.402857863235 125.11351892621121 761.684675778581 127.38916005093046 762.1727523549384 129.95497005017563 762.6608289312958 132.52078004942084 762.3040624222803 135.10811793896295 761.9472959132647 137.69545582850506 760.7830398665475 140.03342664831817 759.6187838198302 142.37139746813128 757.7689361508362 144.2152150562166 755.9190884818421 146.0590326443019 753.5773287298274 147.21564881246633 751.2355689778127 148.37226498063072 748.6470800069778 148.7205817107504 746.0585910361428 149.06889844087007 743.4943883250288 148.5724468793548 740.9301856139148 148.07599531783953 738.6587418632591 146.78675407423043 736.3872981126035 145.49751283062136 734.6464340827027 143.55046580345095 732.905570052802 141.60341877628056 731.8775546671302 139.2024223032641 730.8495392814584 136.80142583024764 730.6420060222652 134.19786487591142 730.434472763072 131.59430392157523 731.0691504173783 129.06077200511166 731.7038280716846 126.52724008864809 733.114265721546 124.32899867049832 734.5247033714072 122.13075725234857 736.5632278225637 120.4979627892723 738.6017522737202 118.86516832619603 741.0549294780176 117.9687748294932 743.508106682315 117.07238133279037 746.1190883388874 117.00624143819068 748.7300699954598 116.940101543591 751.2254856356319 117.71114011551826 753.7209012758041 118.48217868744553 755.8394802233241 120.00966778388455 757.9580591708442 121.53715688032358 759.4779856506564 123.66116798965923 760.9979121304684 125.78517909899489 761.7600494389146 128.28332769739524 762.5221867473609 130.7814762957956 762.4467389070621 133.39220556556097 762.3712910667634 136.00293483532633 761.4661574865154 138.45290073274668 760.5610239062673 140.90286663016704 758.9209723108539 142.93555707905426 757.2809207154405 144.9682475279415 755.0776649398332 146.37083930171895 752.8744091642259 147.77343107549638 750.3386306697337 148.39907244520126 747.8028521752415 149.02471381490614 745.2000476396183 148.8078999639771 742.5972431039951 148.59108611304808 740.1999268491943 147.5545175089107 737.8026105943935 146.51794890477328 735.8617822651229 144.77015455390824 733.9209539358521 143.0223602030432 733.9224677720435 143.02425020950824 733.9239816082351 143.0261402159733 734.0588937388122 142.28421315361095 734.1938058693895 141.54228609124857 729.1417937366571 135.73939688703103 724.0897816039246 129.9365076828135 719.3237105404228 124.2616161756163 714.5576394769209 118.5867246684191 710.0682394220864 112.66900626572192 705.5788393672518 106.75128786302474 700.2088037145911 100.20507194840678 694.8387680619305 93.65885603378882 690.4407126352924 88.03988927425297 686.0426572086542 82.42092251471713 682.7907070781534 76.69234695749994 679.5387569476528 70.96377140028274 675.9865852468388 65.18985306606464 672.4344135460248 59.415934731846534 670.0727489400488 55.381261885697754 667.7110843340727 51.34658903954898 667.0683279149308 49.90567557446183 666.425571495789 48.46476210937468 666.1463375182257 46.911895143407655 665.8671035406622 45.35902817744063 665.9676210965731 43.78446041161688 666.0681386524839 42.20989264579312 666.5425656567966 40.705138032643056 667.0169926611093 39.200383419492994 667.8377553940422 37.852898367833504 668.6585181269753 36.505413316174014 669.7779138199273 35.393513720518854 670.8973095128792 34.281614124863694 672.2502788355812 33.46992364195473 673.6032481582831 32.658233159045764 675.1111564701306 32.19392727788677 676.6190647819781 31.729621396727772 678.1942723810378 31.63968559694703 679.7694799800973 31.549749797166285 681.320435726701 31.839411151672664 682.8713914733047 32.12907250617904 684.3079537465885 32.78149588343896 685.7445160198723 33.43391926069887 686.9831917530164 34.41118578337199 688.2218674861604 35.38845230604511 689.1906647873554 36.633763197917 690.1594620885504 37.87907408978889 690.1591254006764 37.87851288034456 Z" fill="hsl(0, 0%, 0%)"></path><path d="M 734.2094897317884 151.96051025390625 Q 734.2094897317884 151.96051025390625 734.1197918342168 149.1548189163208 734.0300939366451 146.34912757873536 733.9888104816578 145.5575224351883 733.9475270266703 144.76591729164124 734.1407748678816 143.17442928652633 734.3340227090931 141.58294128141142 734.9025346591164 140.08395063392953 735.4710466091398 138.58495998644761 736.3817807267283 137.26558810346017 737.2925148443168 135.94621622047273 738.4925392197655 134.88314505780937 739.6925635952142 133.820073895146 741.1121327554392 133.07508919872893 742.5317019156643 132.33010450231185 744.088310434375 131.94650481769978 745.6449189530858 131.5629051330877 747.248096670038 131.5629852919736 748.8512743869902 131.5630654508595 750.4078445379496 131.9468207944052 751.964414688909 132.3305761379509 753.3839093435665 133.07570278755884 754.8034039982242 133.8208294371668 756.0033220605567 134.88402059695215 757.2032401228893 135.9472117567375 758.113842298736 137.26667470653967 759.0244444745828 138.58613765634186 759.592806522699 140.0851851475237 760.1611685708153 141.58423263870557 760.3542572622603 143.17573996064715 760.5473459537052 144.7672472825887 760.83550500152 152.1056711854352 761.1236640493347 159.44409508828167 762.0013863386787 166.2018680290322 762.8791086280227 172.95964096978273 762.1833353176115 181.1840974908236 761.4875620072004 189.40855401186448 761.9558535209366 196.57708087012853 762.4241450346727 203.74560772839257 761.8822677804706 210.48327558368288 761.3403905262684 217.2209434389732 761.4230257679684 224.79455677384715 761.5056610096684 232.3681701087211 761.6217913867388 240.36283459383014 761.7379217638093 248.35749907893916 761.8547370429152 255.35493106802988 761.9715523220211 262.3523630571206 762.7474797804387 268.8022573182209 763.5234072388562 275.25215157932115 764.2495555534168 281.91602515408806 764.9757038679775 288.5798987288549 765.612480280259 295.6041883275499 766.2492566925405 302.6284779262448 766.4641630611724 310.4310268109199 766.6790694298043 318.23357569559494 767.3108794181993 326.51456926642174 767.9426894065944 334.79556283724855 767.9944195719017 341.47664310522913 768.0461497372091 348.1577233732097 768.5991291752389 356.05407872085146 769.1521086132688 363.9504340684932 769.3579585938473 371.15604236717536 769.5638085744258 378.3616506658575 769.5974953006205 386.4634583097661 769.6311820268153 394.5652659536748 769.6512172313044 401.1248002817167 769.6712524357936 407.6843346097587 769.694484696515 415.4047270347708 769.7177169572365 423.1251194597829 768.3634490495272 432.1519865867667 767.0091811418179 441.1788537137506 765.7963637647565 450.0922873582089 764.5835463876953 459.00572100266726 763.6402004139923 465.72374038411965 762.6968544402891 472.441759765572 761.0736203086863 481.2089181969661 759.4503861770834 489.97607662836026 758.3281224268019 498.0994386538018 757.2058586765203 506.22280067924345 755.7133823688323 515.1969022006714 754.2209060611442 524.1710037220993 753.0804277808495 529.5045743742699 751.9399495005547 534.8381450264404 751.3929269144695 537.5684127832578 750.8459043283843 540.2986805400751 749.4557130088369 542.7113479080849 748.0655216892897 545.1240152760947 745.9777150344117 546.966475344984 743.8899083795338 548.8089354138732 741.3230802972184 549.888282128067 738.756252214903 550.9676288422606 735.9791502829454 551.1708543158629 733.2020483509878 551.3740797894653 730.5054358747475 550.6799062617438 727.8088233985072 549.9857327340221 725.4750364160834 548.4668403565731 723.1412494336595 546.9479479791241 721.4146360581717 544.7633651848153 719.6880226826838 542.5787823905064 718.7493597903273 539.9572355745756 717.8106968979707 537.3356887586449 717.7582627413582 534.5516545647413 717.7058285847456 531.7676203708378 718.5451130339156 529.1125879139768 719.3843974830856 526.4575554571159 721.0275272346605 524.2095073363912 722.6706569862355 521.9614592156667 724.9455959214813 520.3557666627455 727.2205348567271 518.7500741098243 729.889096268598 517.954853558859 732.5576576804689 517.1596330078936 735.3404424847101 517.258144260488 738.1232272889514 517.3566555130825 740.7288771819751 518.3385844150856 743.3345270749988 519.3205133170887 745.4902298251808 521.0830516532568 747.6459325753627 522.8455899894249 749.1259855357084 525.2041995306961 750.6060384960542 527.5628090719673 751.2554797309195 530.2705427767582 751.9049209657849 532.9782764815491 751.6557538064435 535.7516339161957 751.4065866471022 538.5249913508422 750.284898960911 541.0736012598418 749.1632112747199 543.6222111688414 747.2864440585199 545.679233421954 745.4096768423199 547.7362556750667 742.9743281190656 549.0863194993904 740.5389793958112 550.436383323714 737.800030819697 550.9381366804598 735.0610822435827 551.4398900372056 732.30530245354 551.0407992174721 729.5495226634971 550.6417083977387 727.0654425309986 549.383558315702 724.5813623984999 548.1254082336651 722.6290657691513 546.1399275350335 720.6767691398029 544.1544468364019 719.4606619860538 541.6495158744383 718.2445548323045 539.1445849124748 717.8919638941732 536.3824706201343 717.5393729560419 533.6203563277938 717.5392816218889 533.622936371054 717.5391902877358 533.6255164143141 719.0210412306772 526.8155204301535 720.5028921736184 520.0055244459928 721.9262597862052 513.7086187155287 723.3496273987919 507.4117129850645 724.2009543759764 500.414013237065 725.0522813531608 493.4163134890654 726.4721886190523 485.79712985921594 727.8920958849437 478.17794622936657 729.2065739531339 470.977523934939 730.5210520213241 463.7771016405113 731.165863234656 456.92165812872776 731.8106744479878 450.0662146169442 732.6590682140474 443.8696247891742 733.5074619801069 437.67303496140426 734.7188470692552 430.31484276750905 735.9302321584034 422.95665057361384 735.9534607525372 415.3205211843918 735.976689346671 407.68439179516974 735.9966143046088 401.1255223767456 736.0165392625466 394.5666529583215 736.035407370154 387.9361698261409 736.0542754777613 381.30568669396024 736.0409464837226 374.0056831408275 736.027617489684 366.7056795876947 735.40674013648 359.163849309492 734.7858627832762 351.6220190312893 734.7441637237021 343.723533008966 734.7024646641278 335.82504698664275 734.0444314720361 329.00965607439736 733.3863982799444 322.19426516215196 733.4427824520291 314.2557835750119 733.4991666241137 306.3173019878718 732.8031643693816 299.80811638452866 732.1071621146496 293.2989307811855 731.4909815008574 286.2571480457068 730.8748008870652 279.21536531022815 730.2862937402749 271.9128921367874 729.6977865934847 264.6104189633466 729.8108395566682 258.02913928095063 729.9238925198516 251.44785959855466 730.0133901207034 244.77677000400465 730.1028877215552 238.10568040945464 730.2074452120908 231.62139393243993 730.3120027026264 225.13710745542522 730.5972784270874 216.5536572646454 730.8825541515484 207.9702070738656 731.6303199424319 199.49228275368336 732.3780857333155 191.0143584335011 733.9143472827152 183.21503269332976 735.4506088321148 175.41570695315846 734.4109089148276 167.42990102072008 733.3712089975403 159.44409508828167 733.659368045355 152.1056711854352 733.9475270931698 144.7672472825887 734.1406157846147 143.17573996064715 734.3337044760597 141.58423263870557 734.902066524176 140.0851851475237 735.4704285722922 138.58613765634186 736.381030748139 137.26667470653967 737.2916329239857 135.9472117567375 738.4915509863183 134.88402059695215 739.6914690486508 133.8208294371668 741.1109637033085 133.07570278755884 742.530458357966 132.3305761379509 744.0870285089254 131.9468207944052 745.6435986598848 131.5630654508595 747.246776376837 131.5629852919736 748.8499540937892 131.5629051330877 750.4065626125 131.94650481769978 751.9631711312107 132.33010450231185 753.3827402914358 133.07508919872893 754.8023094516608 133.820073895146 756.0023338271095 134.88314505780937 757.2023582025582 135.94621622047273 758.1130923201467 137.26558810346017 759.0238264377352 138.58495998644761 759.5923383877586 140.08395063392953 760.1608503377819 141.58294128141142 760.3540981789934 143.17442928652633 760.5473460202047 144.76591729164124 760.5060625652172 145.5575224351883 760.4647791102299 146.34912757873536 760.3750812126582 149.1548189163208 760.2853833150866 151.96051025390625 760.0959417950576 153.5206513913538 759.9065002750286 155.08079252880137 759.3491860649866 156.55025819003757 758.7918718549446 158.01972385127377 757.8990760829624 159.31310862302502 757.0062803109804 160.60649339477624 755.8298923092736 161.6486256933389 754.653504307567 162.69075799190156 753.2618958020671 163.4210690391188 751.8702872965673 164.15138008633605 750.3443386389984 164.5274241698301 748.8183899814295 164.90346825332418 747.246789379466 164.90338967329401 745.6751887775024 164.90331109326385 744.1492777319716 164.5271144167845 742.6233666864408 164.15091774030515 741.2318312190037 163.42046753588914 739.8402957515664 162.69001733147314 738.6640119689712 161.64776739932117 737.4877281863761 160.6055174671692 736.595061757335 159.31204342230785 735.7023953282938 158.01856937744648 735.1452280676042 156.5490479921367 734.5880608069147 155.07952660682693 734.3987753019464 153.51936653302812 734.2094897969781 151.95920645922928 734.2094897643833 151.95985835656776 Z" fill="hsl(0, 0%, 0%)"></path><path d="M 568.7507292472809 540.4942951591215 Q 568.7507292472809 540.4942951591215 575.9794428045413 539.8168786385361 583.2081563618018 539.1394621179506 592.2962234958735 538.1449502144242 601.3842906299452 537.1504383108976 607.6377428764531 536.3033994165294 613.8911951229611 535.4563605221613 620.7343967386303 534.1168528328553 627.5775983542994 532.7773451435493 633.8242151353681 531.8020685288583 640.0708319164369 530.8267919141673 648.1000740005561 529.8858693365029 656.1293160846753 528.9449467588385 664.7903466986888 529.3258502969397 673.4513773127024 529.7067538350409 683.9808580238196 529.7552712923818 694.5103387349366 529.8037887497229 702.0666005663045 529.7331098958566 709.6228623976724 529.6624310419903 716.3063669188543 529.5053112670491 722.9898714400363 529.348191492108 730.0873808752863 529.1625920890542 737.1848903105362 528.9769926860005 745.9077342885342 528.8413057077763 754.6305782665323 528.7056187295522 762.5214892534618 529.193252320901 770.4124002403912 529.6808859122499 777.129759565494 529.627335096358 783.8471188905969 529.5737842804662 791.9197223351147 531.0654081200147 799.9923257796324 532.5570319595632 801.7852321273201 532.2867057085765 803.5781384750078 532.0163794575898 806.1012181484673 532.4818549282672 808.6242978219269 532.9473303989446 810.8666623482469 534.1940861021716 813.1090268745669 535.4408418053986 814.8359000959149 537.3383420899357 816.5627733172628 539.2358423744729 817.5933511515133 541.5854184596378 818.6239289857638 543.9349945448027 818.8503096616246 546.4906451942508 819.0766903374855 549.0462958436988 818.4751717384354 551.5404437598064 817.8736531393854 554.034591675914 816.5072144215305 556.2060989134739 815.1407757036756 558.3776061510335 813.1524833614799 559.9991153290505 811.1641910192843 561.6206245070675 808.7622197858341 562.5223631865667 806.3602485523838 563.4241018660658 803.7960854498801 563.5116577692676 801.2319223473763 563.5992136724693 798.7740359295244 562.863419673196 796.3161495116726 562.1276256739227 794.2218811352408 560.6455195981289 792.1276127588089 559.1634135223351 790.6162328756427 557.0901722673946 789.1048529924765 555.0169310124539 788.3346034753089 552.5696234850413 787.5643539581413 550.1223159576288 787.6158801347458 547.5571759018907 787.6674063113504 544.9920358461526 788.5353133774352 542.5776341030561 789.4032204435199 540.1632323599596 790.9966383001604 538.1523574293469 792.590056156801 536.1414824987344 794.7421535337857 534.7446735166602 796.8942509107703 533.3478645345862 799.3797026446302 532.7113677701955 801.8651543784902 532.0748710058047 804.4237330165947 532.2653278383478 806.9823116546993 532.455784670891 809.3461333382397 533.4532542197251 811.7099550217802 534.4507237685592 813.6315269965014 536.150770708615 815.5530989712228 537.8508176486707 816.8312321441259 540.0754466165554 818.1093653170291 542.3000755844402 818.6102388075167 544.8163673399713 819.1111122980043 547.3326590955024 818.7822845194046 549.8771572276394 818.4534567408049 552.4216553597763 817.3293560483394 554.7279502424021 816.2052553558738 557.0342451250278 814.4035753887772 558.8608670751287 812.6018954216808 560.6874890252296 810.3112725481056 561.8431902424488 808.0206496745305 562.9988914596679 805.4809127140059 563.3626697214869 802.9411757534812 563.7264479833059 802.9435540086383 563.7264957555103 802.9459322637956 563.7265435277149 800.8513988444811 563.6352907085243 798.7568654251667 563.5440378893338 791.9144382355405 562.0997087403043 785.0720110459143 560.6553795912749 778.3006548269665 560.3749541422983 771.5292986080186 560.0945286933215 763.0799387917111 559.4063691663562 754.6305789754036 558.7182096393909 745.9077524596664 558.5825262777415 737.1849259439292 558.4468429160921 730.0882424980109 558.2613543645775 722.9915590520927 558.0758658130629 716.3122521726928 557.9201241745718 709.6329452932928 557.7643825360807 702.0887725983506 557.7004751856331 694.5445999034084 557.6365678351855 684.0498235018174 557.72257458481 673.5550471002265 557.8085813344344 665.4363229398059 558.2513866967395 657.3175987793854 558.6941920590447 650.6104687755336 559.1713326659014 643.9033387716818 559.6484732727583 637.5038905593561 560.0813114163973 631.1044423470305 560.5141495600363 624.8408998510371 561.1613825909342 618.5773573550437 561.8086156218319 611.6768207894977 562.4240782213164 604.7762842239518 563.0395408208011 595.4059221464071 563.8176098470308 586.0355600688623 564.5956788732603 578.8349813287595 565.5215170523819 571.6344025886566 566.4473552315035 570.0606607726172 566.4313385323503 568.4869189565779 566.415321833197 566.9627432813063 566.0231377576497 565.4385676060348 565.6309536821022 564.0525432333909 564.8853959870581 562.6665188607469 564.139838292014 561.4992015923907 563.084238825739 560.3318843240345 562.028639359464 559.4511186944492 560.7243496125352 558.5703530648638 559.4200598656064 558.0273292138232 557.9428852193971 557.4843053627827 556.4657105731877 557.3105838620236 554.9015044875403 557.1368623612643 553.3372984018929 557.3425399125726 551.7769726079991 557.5482174638811 550.2166468141053 558.1213400783113 548.7508875204178 558.6944626927416 547.2851282267303 559.601720457015 545.9991254322667 560.5089782212883 544.713122637803 561.697641271518 543.6816188854002 562.8863043217476 542.6501151329973 564.287287505605 541.9330614692096 565.6882706894625 541.216007805422 567.220148798477 540.8550794228797 568.7520269074915 540.4941510403373 568.7513780773862 540.4942230997294 Z" fill="hsl(0, 0%, 0%)"></path><path d="M 693.0917482465904 553.4229574288146 Q 693.0917482465904 553.4229574288146 693.9720270604494 557.0131055741563 694.8523058743083 560.6032537194978 696.428723721767 566.7808895429637 698.0051415692258 572.9585253664294 699.7351341315091 580.0459631676774 701.4651266937924 587.1334009689256 701.7821732668058 593.4871604827383 702.0992198398192 599.8409199965511 702.2960969633023 606.0900333986859 702.4929740867855 612.3391468008208 701.3988190310486 621.1757072609198 700.3046639753117 630.0122677210189 699.5976294633879 636.2312762122799 698.8905949514642 642.4502847035409 699.1703444663582 649.0302427393001 699.4500939812522 655.6102007750593 695.4596466928336 662.7786707508426 691.4691994044151 669.9471407266259 694.7475196056862 666.993422420558 698.0258398069572 664.0397041144901 697.282703148429 666.5874676160374 696.539566489901 669.1352311175849 695.0218033725941 671.3123269062006 693.5040402552872 673.4894226948163 691.3705608782343 675.0679082667349 689.2370815011813 676.6463938386535 686.7112617183434 677.4610013378152 684.1854419355057 678.275608836977 681.5317357448978 678.2410486431843 678.8780295542899 678.2064884493915 676.374280694579 677.3263790240574 673.8705318348683 676.4462695987231 671.7788834725917 674.8127586310063 669.6872351103151 673.1792476632896 668.2266833811445 670.9633641827152 666.7661316519741 668.7474807021408 666.0895967075021 666.1812282940614 665.4130617630302 663.6149758859818 665.5913769905308 660.9670418549481 665.7696922180314 658.3191078239142 666.7841879661147 655.8667315619621 667.798683714198 653.41435530001 669.5431420102387 651.4143012491304 671.2876003062795 649.4142471982507 673.5793759061899 648.0759215455337 675.8711515061003 646.7375958928166 678.4702948995998 646.2011216873852 681.0694382930993 645.6646474819538 683.7038184807814 645.9861937147323 686.3381986684633 646.3077399475108 688.7319953492686 647.4536406430472 691.125792030074 648.5995413385835 693.0283740596213 650.4498203915668 694.9309560891687 652.3000994445501 696.1431226267316 654.6610321497067 697.3552891642946 657.0219648548633 697.7501260534094 659.6463609347377 698.1449629425242 662.270757014612 697.6811306566738 664.8838415068678 697.2172983708232 667.4969259991236 695.9433602727757 669.8251082676345 694.6694221747283 672.1532905361455 692.7187599196366 673.952809282818 690.7680976645448 675.7523280294905 688.3449461054416 676.834773166521 685.9217945463384 677.9172183035516 683.2798582911119 678.1692575393555 680.6379220358853 678.4212967751594 678.0538125078608 677.816541535216 675.4697029798365 677.2117862952724 673.2139771287372 675.8135546128436 670.9582512776378 674.4153229304148 669.2670841955276 672.3700100317483 667.5759171134172 670.3246971330818 666.6263744402174 667.8464478185781 665.6768317670178 665.3681985040744 665.5683308712677 662.7164861311562 665.4598299755176 660.0647737582382 665.4595318557385 660.0672162089938 665.4592337359596 660.0696586597495 666.1893119824133 654.4895823937634 666.9193902288671 648.9095061277771 667.8574245060438 642.3729839902292 668.7954587832206 635.8364618526813 670.3038526342709 628.991695641002 671.8122464853212 622.1469294293227 672.0069802531882 615.7378266888079 672.2017140210552 609.3287239482931 674.6746009944701 602.9436052831093 677.147487967885 596.5584866179253 675.1495815398386 590.3448166546482 673.1516751117921 584.1311466913711 671.0820408809489 575.237704420507 669.0124066501057 566.3442621496429 668.2894307642576 562.7197465986953 667.5664548784096 559.0952310477479 667.4125197111225 557.5268236512818 667.2585845438356 555.9584162548157 667.4844789081687 554.3987465676128 667.710373272502 552.8390768804098 668.3029681773868 551.3787929779711 668.8955630822716 549.9185090755324 669.820416883993 548.6424827268786 670.7452706857144 547.3664563782248 671.9486308378625 546.3488502946938 673.1519909900105 545.3312442111627 674.5639181440026 544.631201706141 675.9758452979947 543.9311592011194 677.5142781813017 543.5893667778905 679.0527110646088 543.2475743546615 680.6282358857701 543.2838970049224 682.2037607069313 543.3202196551833 683.7248078893152 543.7325463047943 685.2458550716991 544.1448729544052 686.6240212815992 544.9092391591178 688.0021874914994 545.6736053638302 689.1573736440437 546.7455861239127 690.312559796588 547.8175668839954 691.1776264183143 549.1348586273052 692.0426930400405 550.452150370615 692.5673624182491 551.9381920391382 693.0920317964577 553.4242337076615 693.091890021524 553.423595568238 Z" fill="hsl(0, 0%, 0%)"></path></svg>